<?xml version="1.0" encoding="utf-8"?>
<!-- Generator: Adobe Illustrator 19.0.0, SVG Export Plug-In . SVG Version: 6.00 Build 0)  -->
<svg version="1.1" xmlns="http://www.w3.org/2000/svg" xmlns:xlink="http://www.w3.org/1999/xlink" x="0px" y="0px"
	 viewBox="-346.2 308.2 398.7 198.3" style="enable-background:new -346.2 308.2 398.7 198.3;" xml:space="preserve">
<style type="text/css">
	.st0{clip-path:url(#SVGID_2_);fill:none;}
	.st1{clip-path:url(#SVGID_4_);fill:#8BB3D2;}
	.st2{clip-path:url(#SVGID_6_);fill:#8BB3D2;}
	.st3{clip-path:url(#SVGID_8_);fill:#8BB3D2;}
	.st4{clip-path:url(#SVGID_10_);fill:#B20E10;}
	.st5{clip-path:url(#SVGID_12_);fill:#B20E10;}
	.st6{clip-path:url(#SVGID_14_);fill:#B20E10;}
	.st7{clip-path:url(#SVGID_16_);fill:#B20E10;}
	.st8{clip-path:url(#SVGID_18_);fill:#B20E10;}
	.st9{clip-path:url(#SVGID_20_);fill:#B20E10;}
	.st10{clip-path:url(#SVGID_22_);fill:#B20E10;}
	.st11{clip-path:url(#SVGID_24_);fill:#B20E10;}
	.st12{clip-path:url(#SVGID_26_);fill:#B20E10;}
	.st13{clip-path:url(#SVGID_28_);fill:#B20E10;}
	.st14{clip-path:url(#SVGID_30_);fill:#B20E10;}
	.st15{clip-path:url(#SVGID_32_);fill:#B20E10;}
	.st16{clip-path:url(#SVGID_34_);fill:#B20E10;}
	.st17{clip-path:url(#SVGID_36_);fill:#B20E10;}
	.st18{clip-path:url(#SVGID_38_);fill:#B20E10;}
	.st19{clip-path:url(#SVGID_40_);fill:#B20E10;}
	.st20{fill:#B20E10;}
	.st21{clip-path:url(#SVGID_42_);fill:#B20E10;}
	.st22{clip-path:url(#SVGID_44_);fill:#B20E10;}
	.st23{clip-path:url(#SVGID_46_);fill:#F8DB00;}
	.st24{clip-path:url(#SVGID_48_);fill:#F8DB00;}
	.st25{clip-path:url(#SVGID_50_);fill:#F8DB00;}
	.st26{clip-path:url(#SVGID_52_);fill:#F8DB00;}
	.st27{clip-path:url(#SVGID_54_);fill:#F8DB00;}
	.st28{clip-path:url(#SVGID_56_);fill:#F8DB00;}
	.st29{clip-path:url(#SVGID_58_);fill:none;stroke:#FFFFFF;stroke-width:0.388;}
	.st30{clip-path:url(#SVGID_62_);fill:#8BB3D2;}
	.st31{clip-path:url(#SVGID_64_);fill:#8BB3D2;}
	.st32{clip-path:url(#SVGID_66_);fill:#8BB3D2;}
	.st33{clip-path:url(#SVGID_68_);fill:#8BB3D2;}
	.st34{clip-path:url(#SVGID_70_);fill:#8BB3D2;}
	.st35{clip-path:url(#SVGID_72_);fill:#8BB3D2;}
	.st36{clip-path:url(#SVGID_74_);fill:#8BB3D2;}
	.st37{clip-path:url(#SVGID_76_);fill:#8BB3D2;}
	.st38{clip-path:url(#SVGID_78_);fill:#8BB3D2;}
	.st39{clip-path:url(#SVGID_80_);fill:#8BB3D2;}
	.st40{clip-path:url(#SVGID_82_);fill:#8BB3D2;}
	.st41{clip-path:url(#SVGID_84_);fill:#8BB3D2;}
	.st42{clip-path:url(#SVGID_86_);fill:#8BB3D2;}
	.st43{clip-path:url(#SVGID_88_);fill:#8BB3D2;}
	.st44{clip-path:url(#SVGID_90_);fill:#8BB3D2;}
	.st45{clip-path:url(#SVGID_92_);fill:#8BB3D2;}
	.st46{clip-path:url(#SVGID_94_);fill:#8BB3D2;}
	.st47{clip-path:url(#SVGID_96_);fill:#8BB3D2;}
	.st48{clip-path:url(#SVGID_98_);fill:#B20E10;}
	.st49{clip-path:url(#SVGID_100_);fill:none;stroke:#FFFFFF;stroke-width:0.323;}
	.st50{clip-path:url(#SVGID_102_);fill:none;stroke:#FFFFFF;stroke-width:0.323;stroke-dasharray:1.551,0.581;}
	.st51{clip-path:url(#SVGID_106_);fill:none;stroke:#FFFFFF;stroke-width:0.323;stroke-miterlimit:10;}
</style>
<g id="_x31_945">
	<g>
		<g>
			<defs>
				<rect id="SVGID_1_" x="-346.2" y="308.2" width="199.6" height="198.3"/>
			</defs>
			<clipPath id="SVGID_2_">
				<use xlink:href="#SVGID_1_"  style="overflow:visible;"/>
			</clipPath>
			<line class="st0" x1="-168.5" y1="387.2" x2="-166.1" y2="382.9"/>
		</g>
		<g>
			<defs>
				<rect id="SVGID_3_" x="-346.2" y="308.2" width="199.6" height="198.3"/>
			</defs>
			<clipPath id="SVGID_4_">
				<use xlink:href="#SVGID_3_"  style="overflow:visible;"/>
			</clipPath>
			<polygon class="st1" points="-201,338.4 -209.1,330.3 -207.2,328.4 -204.1,331.6 -202.2,329.7 -209.1,322.8 -214.1,322.8 
				-215.4,324.1 -224.7,324.1 -224.7,349.7 -213.5,349.7 -204.1,349.7 -199.7,345.3 -201,344 			"/>
		</g>
		<g>
			<defs>
				<rect id="SVGID_5_" x="-346.2" y="308.2" width="199.6" height="198.3"/>
			</defs>
			<clipPath id="SVGID_6_">
				<use xlink:href="#SVGID_5_"  style="overflow:visible;"/>
			</clipPath>
			<polygon class="st2" points="-300.3,399.6 -300.9,400.3 -309.7,391.5 -305.3,387.2 -302.2,390.3 -303.4,391.5 -300.3,394.7 			
				"/>
		</g>
		<g>
			<defs>
				<rect id="SVGID_7_" x="-346.2" y="308.2" width="199.6" height="198.3"/>
			</defs>
			<clipPath id="SVGID_8_">
				<use xlink:href="#SVGID_7_"  style="overflow:visible;"/>
			</clipPath>
			<polygon class="st3" points="-212.9,471.5 -222.8,481.5 -229.7,481.5 -232.8,484.6 -232.8,480.9 -236.6,477.1 -236.6,488.4 
				-243.5,488.4 -243.5,494 -239.7,497.7 -239.7,505.2 -222.2,505.2 -207.2,490.2 -207.2,484 -209.7,484 -209.7,487.1 -212.2,484.6 
				-212.2,482.1 -209.7,479.6 -209.7,471.5 			"/>
		</g>
		<g>
			<defs>
				<rect id="SVGID_9_" x="-346.2" y="308.2" width="199.6" height="198.3"/>
			</defs>
			<clipPath id="SVGID_10_">
				<use xlink:href="#SVGID_9_"  style="overflow:visible;"/>
			</clipPath>
			<rect x="-318.6" y="380.5" class="st4" width="0.6" height="0.6"/>
		</g>
		<g>
			<defs>
				<rect id="SVGID_11_" x="-346.2" y="308.2" width="199.6" height="198.3"/>
			</defs>
			<clipPath id="SVGID_12_">
				<use xlink:href="#SVGID_11_"  style="overflow:visible;"/>
			</clipPath>
			<rect x="-189.1" y="429.6" class="st5" width="0.6" height="0.6"/>
		</g>
		<g>
			<defs>
				<rect id="SVGID_13_" x="-346.2" y="308.2" width="199.6" height="198.3"/>
			</defs>
			<clipPath id="SVGID_14_">
				<use xlink:href="#SVGID_13_"  style="overflow:visible;"/>
			</clipPath>
			<rect x="-188.5" y="425.3" class="st6" width="0.6" height="0.6"/>
		</g>
		<g>
			<defs>
				<rect id="SVGID_15_" x="-346.2" y="308.2" width="199.6" height="198.3"/>
			</defs>
			<clipPath id="SVGID_16_">
				<use xlink:href="#SVGID_15_"  style="overflow:visible;"/>
			</clipPath>
			<rect x="-268.2" y="415.5" class="st7" width="0.6" height="0.6"/>
		</g>
		<g>
			<defs>
				<rect id="SVGID_17_" x="-346.2" y="308.2" width="199.6" height="198.3"/>
			</defs>
			<clipPath id="SVGID_18_">
				<use xlink:href="#SVGID_17_"  style="overflow:visible;"/>
			</clipPath>
			<rect x="-267" y="411.1" class="st8" width="0.6" height="0.6"/>
		</g>
		<g>
			<defs>
				<rect id="SVGID_19_" x="-346.2" y="308.2" width="199.6" height="198.3"/>
			</defs>
			<clipPath id="SVGID_20_">
				<use xlink:href="#SVGID_19_"  style="overflow:visible;"/>
			</clipPath>
			<rect x="-269.2" y="409.5" class="st9" width="0.6" height="0.6"/>
		</g>
		<g>
			<defs>
				<rect id="SVGID_21_" x="-346.2" y="308.2" width="199.6" height="198.3"/>
			</defs>
			<clipPath id="SVGID_22_">
				<use xlink:href="#SVGID_21_"  style="overflow:visible;"/>
			</clipPath>
			<rect x="-262.6" y="400.1" class="st10" width="1.2" height="1.2"/>
		</g>
		<g>
			<defs>
				<rect id="SVGID_23_" x="-346.2" y="308.2" width="199.6" height="198.3"/>
			</defs>
			<clipPath id="SVGID_24_">
				<use xlink:href="#SVGID_23_"  style="overflow:visible;"/>
			</clipPath>
			<rect x="-159.1" y="375.9" class="st11" width="1.2" height="0.6"/>
		</g>
		<g>
			<defs>
				<rect id="SVGID_25_" x="-346.2" y="308.2" width="199.6" height="198.3"/>
			</defs>
			<clipPath id="SVGID_26_">
				<use xlink:href="#SVGID_25_"  style="overflow:visible;"/>
			</clipPath>
			<path class="st12" d="M-317.8,365.3v-14.4V365.3z"/>
		</g>
		<g>
			<defs>
				<rect id="SVGID_27_" x="-346.2" y="308.2" width="199.6" height="198.3"/>
			</defs>
			<clipPath id="SVGID_28_">
				<use xlink:href="#SVGID_27_"  style="overflow:visible;"/>
			</clipPath>
			<polygon class="st13" points="-224.7,459.6 -226,458.4 -227.2,458.4 -228.5,458.4 -229.7,459.6 -234.7,459.6 -236.6,457.7 
				-251,457.7 -253.5,460.2 -253.5,461.5 -250.3,464.6 -250.3,469 -247.2,472.1 -247.2,484.6 -243.5,488.4 -236.6,488.4 
				-236.6,477.1 -236.6,470.2 -232.8,470.2 -232.8,460.9 -228.5,460.9 -227.2,462.1 			"/>
		</g>
		<g>
			<defs>
				<rect id="SVGID_29_" x="-346.2" y="308.2" width="199.6" height="198.3"/>
			</defs>
			<clipPath id="SVGID_30_">
				<use xlink:href="#SVGID_29_"  style="overflow:visible;"/>
			</clipPath>
			<polygon class="st14" points="-189.7,425.9 -189.7,436.5 -187.9,438.4 -194.7,445.3 -197.9,442.1 -201,442.1 -201,436.5 
				-206,436.5 -211.6,430.9 -211.6,420.9 -214.1,418.4 -214.1,416.5 -214.1,414 -209.7,414 -201,414 -199.1,414 -194.7,418.4 
				-194.7,420.9 			"/>
		</g>
		<g>
			<defs>
				<rect id="SVGID_31_" x="-346.2" y="308.2" width="199.6" height="198.3"/>
			</defs>
			<clipPath id="SVGID_32_">
				<use xlink:href="#SVGID_31_"  style="overflow:visible;"/>
			</clipPath>
			<polygon class="st15" points="-261,398.4 -259.7,398.4 -259.7,404 -243.5,404 -243.5,402.8 -247.2,399 -247.2,390.9 
				-245.1,388.8 -247.9,385.3 -247.9,383.4 -246,383.4 -246,377.2 -250.6,381.8 -250.6,385.1 -252.6,387.1 -253.9,385.8 -261,392.8 
							"/>
		</g>
		<g>
			<defs>
				<rect id="SVGID_33_" x="-346.2" y="308.2" width="199.6" height="198.3"/>
			</defs>
			<clipPath id="SVGID_34_">
				<use xlink:href="#SVGID_33_"  style="overflow:visible;"/>
			</clipPath>
			<polygon class="st16" points="-283.4,395.9 -280.3,392.8 -278.4,392.8 -278.4,379.7 -283.4,379.7 -284.5,385.7 			"/>
		</g>
		<g>
			<defs>
				<rect id="SVGID_35_" x="-346.2" y="308.2" width="199.6" height="198.3"/>
			</defs>
			<clipPath id="SVGID_36_">
				<use xlink:href="#SVGID_35_"  style="overflow:visible;"/>
			</clipPath>
			<polyline class="st17" points="-166.1,382.9 -166.1,379.1 -162.9,379 -162.9,383.4 -166,386.5 -166,395.3 -184.1,413.4 
				-184.1,414.6 -186,412.8 -186,397.1 -178.5,397.1 -168.5,387.2 			"/>
		</g>
		<g>
			<defs>
				<rect id="SVGID_37_" x="-346.2" y="308.2" width="199.6" height="198.3"/>
			</defs>
			<clipPath id="SVGID_38_">
				<use xlink:href="#SVGID_37_"  style="overflow:visible;"/>
			</clipPath>
			<polygon class="st18" points="-181,380.3 -181,384 -177.9,387.2 -168.5,387.2 -178.5,397.1 -186,397.1 -187.2,397.1 
				-190.4,400.3 -193.5,397.1 -196.7,397.1 -205.4,388.4 -202.3,385.3 -202.3,380.3 -197.3,375.3 -197.3,365.9 -195.4,367.8 
				-192.9,367.8 -184.1,376.5 -184.2,376.5 -185.4,376.5 -185.4,380.3 			"/>
		</g>
		<g>
			<defs>
				<rect id="SVGID_39_" x="-346.2" y="308.2" width="199.6" height="198.3"/>
			</defs>
			<clipPath id="SVGID_40_">
				<use xlink:href="#SVGID_39_"  style="overflow:visible;"/>
			</clipPath>
			<polygon class="st19" points="-181,460.9 -166.7,446.5 -163.5,449.6 -163.5,457.1 -167.9,461.5 -167.9,472.1 -176,480.2 
				-181,480.2 			"/>
		</g>
		<g>
			
				<rect x="-221.6" y="489.3" transform="matrix(-0.7073 0.7069 -0.7069 -0.7073 -25.5626 993.636)" class="st20" width="6.2" height="4.4"/>
		</g>
		<g>
			<defs>
				<rect id="SVGID_41_" x="-346.2" y="308.2" width="199.6" height="198.3"/>
			</defs>
			<clipPath id="SVGID_42_">
				<use xlink:href="#SVGID_41_"  style="overflow:visible;"/>
			</clipPath>
			<polygon class="st21" points="-258.5,309.7 -261.6,309.7 -270.3,309.7 -278.4,309.7 -281.6,312.8 -282.8,312.8 -286.6,312.8 
				-289.7,312.8 -290.9,311.6 -302.2,322.8 -302.2,327.2 -307.8,332.8 -317.8,342.8 -317.8,350.9 -317.8,365.3 -321.5,369 
				-319,371.5 -319,377.1 -313.4,382.8 -313.4,387.8 -309.7,391.5 -305.3,387.2 -302.2,390.3 -303.4,391.5 -300.3,394.6 
				-300.3,399.6 -295.3,394.6 -289.7,394.6 -285.9,398.4 -283.4,395.9 -284.5,385.7 -283.4,379.7 -281.6,379.7 -278.4,379.7 
				-278.4,392.8 -274.7,392.8 -272.8,392.8 -267.2,398.4 -261,398.4 -261,392.8 -253.9,385.8 -252.6,387.1 -250.6,385.1 
				-250.6,381.8 -246,377.2 -246,383.4 -247.9,383.4 -247.9,385.3 -245.1,388.8 -247.2,390.9 -247.2,399 -243.5,402.8 -243.5,404 
				-251,404 -253.5,404 -255.3,404 -257.8,404 -259.7,404 -259.7,407.8 -259.7,409 -261,410.3 -261,414.6 -254.7,420.9 
				-253.5,422.1 -252.2,423.4 -252.2,424.6 -252.2,426.5 -252.2,437.8 -249.1,440.9 -249.1,444.6 -253.5,449 -253.5,460.2 
				-251,457.7 -236.6,457.7 -234.7,459.6 -229.7,459.6 -228.5,458.4 -227.2,458.4 -226,458.4 -224.7,459.6 -227.2,462.1 
				-228.5,460.9 -232.8,460.9 -232.8,470.2 -236.6,470.2 -236.6,477.1 -232.8,480.9 -232.8,484.6 -229.7,481.5 -222.8,481.5 
				-212.9,471.5 -209.7,471.5 -209.7,479.6 -212.2,482.1 -212.2,484.6 -209.7,487.1 -209.7,484 -207.2,484 -207.2,482.7 -201,476.5 
				-201,464 -195.4,458.4 -191,458.4 -187.2,454.6 -187.2,439 -187.9,438.4 -194.7,445.3 -197.9,442.1 -201,442.1 -201,436.5 
				-206,436.5 -211.6,430.9 -211.6,420.9 -214.1,418.4 -214.1,416.5 -214.1,414 -209.7,414 -201,414 -199.1,414 -194.7,418.4 
				-194.7,420.9 -189.7,425.9 -189.7,420.9 -186,417.1 -184.1,417.1 -184.1,414.6 -186,412.8 -186,397.1 -187.2,397.1 -190.4,400.3 
				-193.5,397.1 -195.4,397.1 -196.7,397.1 -205.4,388.4 -202.3,385.3 -202.3,380.3 -197.3,375.3 -197.3,365.9 -195.4,367.8 
				-192.9,367.8 -184.1,376.5 -185.4,376.5 -185.4,380.3 -181,380.3 -182.2,379 -178.5,379 -181,376.5 -191.6,365.9 -191.6,363.4 
				-191.6,362.2 -196.6,357.2 -196.6,349.7 -196.6,348.4 -199.7,345.3 -204.1,349.7 -213.5,349.7 -224.7,349.7 -224.7,324.1 
				-226.6,324.1 -231,319.7 -236.6,319.7 -236.6,327.2 -237.8,327.2 -240.3,324.7 -242.8,324.7 -247.2,320.3 -249.7,320.3 
				-254.7,320.3 -257.2,318.4 -256,317.2 -256,309.7 			"/>
		</g>
		<g>
			<defs>
				<rect id="SVGID_43_" x="-346.2" y="308.2" width="199.6" height="198.3"/>
			</defs>
			<clipPath id="SVGID_44_">
				<use xlink:href="#SVGID_43_"  style="overflow:visible;"/>
			</clipPath>
			<polygon class="st22" points="-176,379 -179.1,382.2 -181,380.3 -181,384 -177.9,387.2 -168.5,387.2 -166.1,382.9 -166.1,379.1 
							"/>
		</g>
		<g>
			<defs>
				<rect id="SVGID_45_" x="-346.2" y="308.2" width="199.6" height="198.3"/>
			</defs>
			<clipPath id="SVGID_46_">
				<use xlink:href="#SVGID_45_"  style="overflow:visible;"/>
			</clipPath>
			<rect x="-317.8" y="319.7" class="st23" width="0.6" height="0.6"/>
		</g>
		<g>
			<defs>
				<rect id="SVGID_47_" x="-346.2" y="308.2" width="199.6" height="198.3"/>
			</defs>
			<clipPath id="SVGID_48_">
				<use xlink:href="#SVGID_47_"  style="overflow:visible;"/>
			</clipPath>
			<rect x="-322.6" y="333.2" class="st24" width="0.6" height="0.6"/>
		</g>
		<g>
			<defs>
				<rect id="SVGID_49_" x="-346.2" y="308.2" width="199.6" height="198.3"/>
			</defs>
			<clipPath id="SVGID_50_">
				<use xlink:href="#SVGID_49_"  style="overflow:visible;"/>
			</clipPath>
			<rect x="-320.1" y="334.3" class="st25" width="0.6" height="0.6"/>
		</g>
		<g>
			<defs>
				<rect id="SVGID_51_" x="-346.2" y="308.2" width="199.6" height="198.3"/>
			</defs>
			<clipPath id="SVGID_52_">
				<use xlink:href="#SVGID_51_"  style="overflow:visible;"/>
			</clipPath>
			<rect x="-317.7" y="334.5" class="st26" width="0.6" height="0.6"/>
		</g>
		<g>
			<defs>
				<rect id="SVGID_53_" x="-346.2" y="308.2" width="199.6" height="198.3"/>
			</defs>
			<clipPath id="SVGID_54_">
				<use xlink:href="#SVGID_53_"  style="overflow:visible;"/>
			</clipPath>
			<rect x="-313.9" y="334.5" class="st27" width="0.6" height="0.6"/>
		</g>
		<g>
			<defs>
				<rect id="SVGID_55_" x="-346.2" y="308.2" width="199.6" height="198.3"/>
			</defs>
			<clipPath id="SVGID_56_">
				<use xlink:href="#SVGID_55_"  style="overflow:visible;"/>
			</clipPath>
			<rect x="-323.3" y="335.5" class="st28" width="0.6" height="0.6"/>
		</g>
		<g>
			<defs>
				<rect id="SVGID_57_" x="-346.2" y="308.2" width="199.6" height="198.3"/>
			</defs>
			<clipPath id="SVGID_58_">
				<use xlink:href="#SVGID_57_"  style="overflow:visible;"/>
			</clipPath>
			<path class="st29" d="M-303.2,328.2l0.9,0.7l0.8-1.3l-0.7-0.4 M-304.2,329.3l0.9,1.4l3.6-1 M-168.5,387.2l2.4-4.3v-3.8
				 M-283.4,379.7l-1,6l1,10.2 M-186,397.1v15.6l1.9,1.9 M-181,376.5h-3.1h-1.2v3.7h4.4l0,0v3.8l3.1,3.1h9.4l-10,10h-7.6h-1.2
				l-3.1,3.1l-3.1-3.1h-3.2 M-319.7,370.9h6.9v1.9h-6.2 M-319.1,375.3h7.5v3.7h-5.6 M-243.4,488.4h6.9v-11.2l3.7,3.7v3.7l3.1-3.1
				h6.9l10-10h3.1v8.1v4.4h2.5 M-217.9,487.7l-4.4,4.4l3.1,3.1l4.4-4.4L-217.9,487.7z M-217.9,487.7l-4.4,4.4l3.1,3.1l4.4-4.4
				L-217.9,487.7z M-224.7,459.6l-2.5,2.5l-1.2-1.2h-4.4v9.4h-3.7v6.9 M-209.7,479.6l-2.5,2.5v2.5l2.5,2.5V484 M-223.5,460.9
				l10.6,10.6 M-211,453.4h5.6v13.7l-4.4,4.4 M-201,442.1v4.4l3.1,3.1v6.2l-2.5,2.5l-1.9-1.9V452l-3.7-3.7 M-206,436.5v11.9l-5,5h-5
				l-7.5,7.5l-1.2-1.2l-1.3-1.3h-1.6 M-226.6,440.9v4.4h-4.4v9.4l3.7,3.7h-1.2l-1.2,1.2h-5l-1.9-1.9H-251l-2.5,2.5 M-187.9,438.4
				l-6.9,6.9l-3.1-3.1h-3.1v-5.6h-5l-5.6-5.6 M-202.9,397.1l1.9,1.9v15 M-214.1,414h4.4h8.7h1.9l4.4,4.4v2.5l5,5 M-211.6,420.9
				l1.9-1.9v-2.5V414 M-255.3,404v3.7h-4.4 M-249.7,422.1l-1.9-1.9l-1.9,1.9 M-252.2,426.5h10.6v6.2h5.6v-3.1h5.6v11.3h3.8h5.6
				l6.2,6.2h2.5v-2.5l-3.1-3.1v-6.9l3.7-3.7v-10l-2.5-2.5v-1.9V414v-1.9l4.4-4.4v-7.5 M-219.1,395.3h-7.5l-2.5,2.5h-5l-1.9-1.9
				l-2.5,2.5v11.2l-5.6,5.6v5.6h-4.4l-1.2,1.3l-2.5,2.5 M-259.7,398.4v-4.2l7.1-7.1 M-250.6,384l3.7-3.7v-2.2 M-259.7,404h4.4h4.4
				h7.5v-1.2l-3.7-3.8v-8.1l2.1-2.1l-2.9-3.5v-1.9h2v-6.2l-4.4-4.4 M-294.3,315l2.8,2.3l6.2-1.8l2.3-0.5 M-305.3,387.2l-4.4,4.4
				 M-313.4,387.8l4.4-4.4l3.7,3.8l3.1,3.1l-1.2,1.2l3.1,3.1v5 M-254.7,320.3l-4.4,4.4 M-282.8,312.8v6.9l-7.5,7.5h-6.9l-2.5,2.5
				v3.1h-8.1 M-261.6,309.7v5l-1.9,1.9v3.7l4.4,4.4v15l3.7,3.7l-16.9,16.9l-18.7-18.7l-8.7-8.7v5h-1.9h-5.6v6.9h-3.1v6.2h-7.5
				 M-261,398.4v-5.6l7-7l1.3,1.4l2-2v-3.4l4.6-4.6 M-255.3,343.4l6.2,6.2l3.7-3.7v6.9l2.5,2.5l-2.5,2.5v6.9l-5,5v3.1h-20l-1.2,1.2
				v6.9l-3.1,3.1v8.7 M-281.6,379.7h3.1v13.1 M-281.6,394v-14.4h-1.9h-5.6v15.6 M-197.3,365.9l1.9,1.9h2.5l8.7,8.7 M-245.3,345.9
				v6.9l2.5,2.5l-2.5,2.5v6.9 M-197.3,365.9v-2.5h5.7 M-245.3,345.9l3.1-3.1L-226,359v-4.4h1.2v-5V324 M-199.7,345.3l-0.3,0.3
				 M-200,345.6l-4.1,4.1h-9.4h-11.2 M-226,359v7.5l-3.7,3.7v8.1l3.1,3.1v3.7l7.5,7.5v2.5h1.2l2.5,2.5h3.1l2.5,2.5l0.6,0.6h6.2V397
				h6.2l-8.7-8.7l3.1-3.1v-5l5-5v-9.3v-2.5h5.7"/>
		</g>
		<g>
			<defs>
				<rect id="SVGID_59_" x="-346.2" y="308.2" width="199.6" height="198.3"/>
			</defs>
			<clipPath id="SVGID_60_">
				<use xlink:href="#SVGID_59_"  style="overflow:visible;"/>
			</clipPath>
		</g>
	</g>
</g>
<g id="_x32_016">
	<g>
		<g>
			<g>
				<defs>
					<rect id="SVGID_61_" x="-157.4" y="308.3" width="195.1" height="198.4"/>
				</defs>
				<clipPath id="SVGID_62_">
					<use xlink:href="#SVGID_61_"  style="overflow:visible;"/>
				</clipPath>
				<polygon class="st30" points="-70.7,309.7 -87.5,309.7 -90.6,312.8 -91.9,312.8 -98.8,312.8 -100,311.5 -111.3,322.8 
					-111.3,327.2 -116.9,332.8 -108.8,332.8 -108.8,337.8 -116.3,337.8 -116.3,344.6 -119.4,344.6 -119.4,350.9 -126.9,350.9 
					-126.9,365.3 -130.6,369 -128.1,371.5 -128.1,372.8 -128.1,375.3 -128.1,377.1 -122.5,382.8 -122.5,387.8 -118.8,391.5 
					-110,400.3 -109.4,399.6 -104.4,394.6 -98.8,394.6 -98.1,395.3 -95,398.4 -90.6,394 -89.4,392.8 -87.5,392.8 -83.8,392.8 
					-81.9,392.8 -76.3,398.4 -70.7,398.4 -68.8,398.4 -68.8,404 -68.8,407.8 -68.8,409 -70,410.3 -70,414.6 -63.8,420.9 
					-62.5,422.1 -61.3,423.4 -61.3,424.6 -61.3,426.5 -61.3,437.8 -58.2,440.9 -58.2,444.6 -62.5,449 -62.5,460.2 -62.5,461.5 
					-59.4,464.6 -59.4,469 -56.3,472.1 -56.3,484.6 -52.5,488.4 -52.5,494 -48.8,497.7 -48.8,505.2 -31.3,505.2 -16.3,490.2 
					-16.3,484 -16.3,482.7 -10,476.5 -10,464 -4.4,458.4 0,458.4 3.7,454.6 3.7,439 3.1,438.4 1.2,436.5 1.2,425.9 1.2,420.9 
					5,417.1 6.8,417.1 6.8,414.6 6.8,413.4 24.9,395.3 24.9,386.5 28.1,383.4 28.1,379 15,379 11.8,382.1 10,380.3 8.7,379 
					12.5,379 10,376.5 -0.7,365.9 -0.7,363.4 -0.7,362.1 -5.7,357.1 -5.7,349.6 -5.7,348.4 -8.8,345.3 -10,344 -10,338.4 
					-18.2,330.3 -16.3,328.4 -13.2,331.5 -11.3,329.7 -18.2,322.8 -23.2,322.8 -24.4,324 -33.8,324 -35.7,324 -40,319.7 
					-45.7,319.7 -45.7,327.2 -46.9,327.2 -49.4,324.7 -51.9,324.7 -56.3,320.3 -63.8,320.3 -66.3,318.4 -65,317.2 -65,309.7 				"/>
			</g>
			<g>
				<defs>
					<rect id="SVGID_63_" x="-157.4" y="308.3" width="195.1" height="198.4"/>
				</defs>
				<clipPath id="SVGID_64_">
					<use xlink:href="#SVGID_63_"  style="overflow:visible;"/>
				</clipPath>
				<rect x="-126.4" y="317.8" class="st31" width="0.6" height="0.6"/>
			</g>
			<g>
				<defs>
					<rect id="SVGID_65_" x="-157.4" y="308.3" width="195.1" height="198.4"/>
				</defs>
				<clipPath id="SVGID_66_">
					<use xlink:href="#SVGID_65_"  style="overflow:visible;"/>
				</clipPath>
				<rect x="-129.4" y="330.9" class="st32" width="0.6" height="0.6"/>
			</g>
			<g>
				<defs>
					<rect id="SVGID_67_" x="-157.4" y="308.3" width="195.1" height="198.4"/>
				</defs>
				<clipPath id="SVGID_68_">
					<use xlink:href="#SVGID_67_"  style="overflow:visible;"/>
				</clipPath>
				<rect x="-126.9" y="332" class="st33" width="0.6" height="0.6"/>
			</g>
			<g>
				<defs>
					<rect id="SVGID_69_" x="-157.4" y="308.3" width="195.1" height="198.4"/>
				</defs>
				<clipPath id="SVGID_70_">
					<use xlink:href="#SVGID_69_"  style="overflow:visible;"/>
				</clipPath>
				<rect x="-125" y="332" class="st34" width="0.6" height="0.6"/>
			</g>
			<g>
				<defs>
					<rect id="SVGID_71_" x="-157.4" y="308.3" width="195.1" height="198.4"/>
				</defs>
				<clipPath id="SVGID_72_">
					<use xlink:href="#SVGID_71_"  style="overflow:visible;"/>
				</clipPath>
				<rect x="-121.3" y="332" class="st35" width="0.6" height="0.6"/>
			</g>
			<g>
				<defs>
					<rect id="SVGID_73_" x="-157.4" y="308.3" width="195.1" height="198.4"/>
				</defs>
				<clipPath id="SVGID_74_">
					<use xlink:href="#SVGID_73_"  style="overflow:visible;"/>
				</clipPath>
				<rect x="-130" y="333.2" class="st36" width="0.6" height="0.6"/>
			</g>
			<g>
				<defs>
					<rect id="SVGID_75_" x="-157.4" y="308.3" width="195.1" height="198.4"/>
				</defs>
				<clipPath id="SVGID_76_">
					<use xlink:href="#SVGID_75_"  style="overflow:visible;"/>
				</clipPath>
				<rect x="-130.5" y="380.4" class="st37" width="0.6" height="0.6"/>
			</g>
			<g>
				<defs>
					<rect id="SVGID_77_" x="-157.4" y="308.3" width="195.1" height="198.4"/>
				</defs>
				<clipPath id="SVGID_78_">
					<use xlink:href="#SVGID_77_"  style="overflow:visible;"/>
				</clipPath>
				<rect x="-127.4" y="382.2" class="st38" width="0.6" height="0.6"/>
			</g>
			<g>
				<defs>
					<rect id="SVGID_79_" x="-157.4" y="308.3" width="195.1" height="198.4"/>
				</defs>
				<clipPath id="SVGID_80_">
					<use xlink:href="#SVGID_79_"  style="overflow:visible;"/>
				</clipPath>
				<rect x="-124.3" y="388.2" class="st39" width="0.6" height="0.6"/>
			</g>
			<g>
				<defs>
					<rect id="SVGID_81_" x="-157.4" y="308.3" width="195.1" height="198.4"/>
				</defs>
				<clipPath id="SVGID_82_">
					<use xlink:href="#SVGID_81_"  style="overflow:visible;"/>
				</clipPath>
				<rect x="-77.2" y="419.5" class="st40" width="0.6" height="0.6"/>
			</g>
			<g>
				<defs>
					<rect id="SVGID_83_" x="-157.4" y="308.3" width="195.1" height="198.4"/>
				</defs>
				<clipPath id="SVGID_84_">
					<use xlink:href="#SVGID_83_"  style="overflow:visible;"/>
				</clipPath>
				<rect x="-76" y="415.1" class="st41" width="0.6" height="0.6"/>
			</g>
			<g>
				<defs>
					<rect id="SVGID_85_" x="-157.4" y="308.3" width="195.1" height="198.4"/>
				</defs>
				<clipPath id="SVGID_86_">
					<use xlink:href="#SVGID_85_"  style="overflow:visible;"/>
				</clipPath>
				<rect x="-75.3" y="412" class="st42" width="0.6" height="0.6"/>
			</g>
			<g>
				<defs>
					<rect id="SVGID_87_" x="-157.4" y="308.3" width="195.1" height="198.4"/>
				</defs>
				<clipPath id="SVGID_88_">
					<use xlink:href="#SVGID_87_"  style="overflow:visible;"/>
				</clipPath>
				<rect x="-71.7" y="400" class="st43" width="1.2" height="1.2"/>
			</g>
			<g>
				<defs>
					<rect id="SVGID_89_" x="-158" y="311.1" width="195.1" height="198.4"/>
				</defs>
				<clipPath id="SVGID_90_">
					<use xlink:href="#SVGID_89_"  style="overflow:visible;"/>
				</clipPath>
				<polygon class="st44" points="9.9,460.8 24.2,446.5 27.4,449.6 27.4,457.1 23,461.5 23,472.1 14.9,480.2 9.9,480.2 				"/>
			</g>
			<g>
				<defs>
					<rect id="SVGID_91_" x="-157.4" y="308.3" width="195.1" height="198.4"/>
				</defs>
				<clipPath id="SVGID_92_">
					<use xlink:href="#SVGID_91_"  style="overflow:visible;"/>
				</clipPath>
				<rect x="31.8" y="375.9" class="st45" width="1.2" height="0.6"/>
			</g>
			<g>
				<defs>
					<rect id="SVGID_93_" x="-157.4" y="308.3" width="195.1" height="198.4"/>
				</defs>
				<clipPath id="SVGID_94_">
					<use xlink:href="#SVGID_93_"  style="overflow:visible;"/>
				</clipPath>
				<rect x="3" y="430" class="st46" width="0.6" height="0.6"/>
			</g>
			<g>
				<defs>
					<rect id="SVGID_95_" x="-157.4" y="308.3" width="195.1" height="198.4"/>
				</defs>
				<clipPath id="SVGID_96_">
					<use xlink:href="#SVGID_95_"  style="overflow:visible;"/>
				</clipPath>
				<rect x="3.6" y="425.6" class="st47" width="0.6" height="0.6"/>
			</g>
			<g>
				<defs>
					<rect id="SVGID_97_" x="-157.4" y="308.3" width="195.1" height="198.4"/>
				</defs>
				<clipPath id="SVGID_98_">
					<use xlink:href="#SVGID_97_"  style="overflow:visible;"/>
				</clipPath>
				<polygon class="st48" points="-112.4,332.8 -116.9,332.8 -126.9,342.8 -126.9,350.9 -119.4,350.9 -119.4,344.7 -116.3,344.7 
					-116.3,337.8 -108.8,337.8 -108.8,332.8 				"/>
			</g>
			<g>
				<defs>
					<rect id="SVGID_99_" x="-157.4" y="308.3" width="195.1" height="198.4"/>
				</defs>
				<clipPath id="SVGID_100_">
					<use xlink:href="#SVGID_99_"  style="overflow:visible;"/>
				</clipPath>
				<path class="st49" d="M-54.4,389L-54.4,389l-2.6-2.6v-3h2v-6.2l-4.4-4.4 M-70,398.4v-5.6l7-7l1.3,1.4l2-2v-3.4l4.6-4.6
					 M-26.9,487.7l-4.4,4.4l3.1,3.1l4.4-4.4L-26.9,487.7z M-6.3,365.9l1.9,1.9h2.5l8.7,8.7 M-117.5,375.3h-3.1h-7.5 M-114.4,387.1
					l-4.4,4.4 M-98.1,384.6v10.6 M-98.1,384.6l-3.1-3.1h-5 M-33.8,349.6h20.6h7.5 M-116.9,332.8h8.1v5h-7.5v6.9h-3.1v6.2h-7.5
					 M-91.9,312.8v6.9l-7.5,7.5h-6.9l-2.5,2.5v3.1l8.7,8.7l18.7,18.7l16.9-16.9l-3.8-3.8v-15l-4.4-4.4v-3.8l1.9-1.9v-5 M-18.8,479.6
					l-1.2,1.2l-1.2,1.2v2.5l2.5,2.5v-3 M-15,448.4l-5,5 M-18.8,471.5v8.1v4.4h2.5 M-22.5,453.4H-25l-7.5,7.5l10.6,10.6h3.1l4.4-4.4
					v-13.7H-20H-22.5 M-45.7,477.1l3.8,3.7v3.7l3.1-3.1h6.9l10-10 M-32.5,460.9l-1.2-1.2 M-52.5,488.4h6.9v-11.2v-6.9h3.8v-9.4h4.4
					l1.2,1.3l2.5-2.5l-1.3-1.2h-1.3 M-58.8,422.1l-1.9-1.9l-1.9,1.9 M-64.4,404v3.7h-4.4 M-63.8,420.9v-5h6.9v-8.7H-60V404
					 M-64.4,404v3.7h-4.4 M-62.5,460.2l2.5-2.5h14.4l1.9,1.9h5l1.2-1.2h1.2l-3.7-3.8v-9.4h4.4v-4.4 M-12.5,436.5h2.5v5.6v4.4
					l3.1,3.1v6.2l-2.5,2.5l-1.9-1.9V452l-3.7-3.8v-11.9h2.5 M-20.7,420.9v10l5.6,5.6 M-10,442.1h3.1l3.1,3.1l6.9-6.9 M-47.5,398.4
					v11.2l-5.6,5.6v5.6h-4.4l-1.2,1.3l-2.5,2.5 M-61.3,426.5h10.6v6.2h5.6v-3.1h5.6v11.2h3.7h5.6l6.2,6.2h2.5v-2.5l-3.1-3.1v-6.9
					l3.7-3.8 M-18.8,416.5v2.5l-1.9,1.9l-2.5-2.5v-1.9 M-23.2,414v2.5h4.4V414 M-10,414h-8.7h-4.4v-1.9l4.4-4.4v-7.5 M-11.9,397.1
					l1.9,1.9v15h1.9l4.4,4.4v2.5l5,5 M-5.7,397.1h3.2l3.1,3.1l3.1-3.1h1.2 M-35,359v7.5l-3.7,3.7v8.1l3.1,3.1 M-28.2,395.3h1.2
					l2.5,2.5h3.1l2.5,2.5l0.6,0.6h6.2v-3.8h6.2l-8.7-8.7l3.1-3.1v-5l5-5v-9.4v-2.5h5.7 M6.8,414.6l-1.9-1.9v-15.6h7.5l10-10
					l-9.4,0.3l-3.1-3.5v-3.8 M-41.3,382.8l-2.5,2.5h-3.1v3.8h-7.5l-1.9,1.9v8.1l3.7,3.8v-3.1h3.7l1.2-1.3l2.5-2.5l1.9,1.9h5l2.5-2.5
					h7.5v-2.5l-7.5-7.5v-3.7h-4.4L-41.3,382.8 M-68.8,404h4.4h4.4h7.5v-1.2 M10,376.5H6.9H5.7v3.7h4.4 M-54.4,345.9v6.9l2.5,2.5
					l-2.5,2.5v6.9l-5,5v3.1h-20l-1.2,1.2 M-86.3,379.6v-6.9l-5.6-5.6 M-83.8,392.8V384l3.1-3.1V374l-3.1,3.1l-2.5,2.5h-1.2
					 M-87.5,392.8v-13.1h-1.9h-1.2 M-90.6,394v-14.4h-3.7h-3.8v5v10.6 M-100,341.5h-4.4v26.2h-15l1.9,1.9v5.6h3.7l5.6,5.6l0.6,0.6
					h1.3l14.4-14.4h10.6v-6.9 M-109.4,399.6v-5l-3.1-3.1l1.2-1.2l3.1-3.1V381 M-120.6,375.3v3.7h-5.7 M-119.4,367.8l-2.5-2.5h-5
					 M-128.8,370.9h6.9v1.9h-6.2 M-33.8,324v25.6v5h-1.3v4.4l-16.2-16.2l-3.1,3.1l-3.7,3.7l-6.2-6.2 M-68.2,324.7l4.4-4.4
					 M-33.8,349.6V324 M-111.3,390.3l-3.1-3.1l-3.7-3.7l-4.4,4.4"/>
			</g>
			<g>
				<defs>
					<rect id="SVGID_101_" x="-157.4" y="308.3" width="195.1" height="198.4"/>
				</defs>
				<clipPath id="SVGID_102_">
					<use xlink:href="#SVGID_101_"  style="overflow:visible;"/>
				</clipPath>
				<path class="st50" d="M-11.9,397.1l1.8-1.8l1.8,1.8 M-7,347.3l-3.5,3.5h-1.4l-1.2-1.2"/>
			</g>
			<g>
				<defs>
					<rect id="SVGID_103_" x="-157.4" y="308.3" width="195.1" height="198.4"/>
				</defs>
				<clipPath id="SVGID_104_">
					<use xlink:href="#SVGID_103_"  style="overflow:visible;"/>
				</clipPath>
			</g>
		</g>
		<g>
			<g>
				<defs>
					<rect id="SVGID_105_" x="-157.4" y="308.3" width="195.1" height="198.4"/>
				</defs>
				<clipPath id="SVGID_106_">
					<use xlink:href="#SVGID_105_"  style="overflow:visible;"/>
				</clipPath>
				<path class="st51" d="M-24.2,382.5h0.6v0.6 M-26.3,383.2v-0.6h0.6 M-35.7,383.9h2.5v-1.6h2.3v1.6h4.6v1.1h2.1l0.6-1.1h1.4v-0.8
					l0.8-0.6l2.1,1.6h1.1l2.6-3.2v-2l-0.6-0.7h1.3v-0.7h1.4v3.7l1.1,1.6v1.7h1"/>
			</g>
		</g>
	</g>
</g>
</svg>
