<?xml version="1.0" encoding="utf-8"?>
<!-- Generator: Adobe Illustrator 19.0.0, SVG Export Plug-In . SVG Version: 6.00 Build 0)  -->
<svg version="1.1" id="Layer_1" xmlns="http://www.w3.org/2000/svg" xmlns:xlink="http://www.w3.org/1999/xlink" x="0px" y="0px"
	 viewBox="0 0 87.9 26.8" style="enable-background:new 0 0 87.9 26.8;" xml:space="preserve">
<style type="text/css">
	.st0{fill:#B20E10;}
	.st1{fill:#FFFFFF;}
</style>
<rect class="st0" width="87.9" height="26.8"/>
<path class="st1" d="M28.2,10.5l-0.6-0.1c-2.1-0.4-4.5-0.3-6.6,0.9c-2.8,1.8-5.3,1.7-5.3,1.7l0.4,0.8c0.1,0,2.2,0.2,5.4-1.7
	c2.3-1.4,4.8-1.1,6.2-0.8l0,0c0,0,0.6,0.2,0.7-0.3C28.7,10.5,28.2,10.5,28.2,10.5"/>
<path class="st1" d="M26.9,16.3c-0.5,0-1.3-0.1-1.4-0.2l0.1-0.3c0,0,0.2-0.3,0.3-0.6c0.2-0.3,0.1-0.6,0.1-0.6l-0.2,0.3l-0.3,0.5
	l-0.5,0.6l-0.2-0.1l-0.1-0.3l-0.2-0.1c0,0,0-0.2-0.1-0.2c-0.1,0.1-0.2,0.2-0.2,0.2c-0.5-0.5-1-1.2-1.5-2c0,0,0.8-0.5,1.2-0.8
	c0.4-0.3,0.4-0.9,0.4-0.9L24,12.1l-0.4,0.3c0,0-0.7,0.5-0.8,0.5c-0.1,0.1-0.2-0.2-0.2-0.2s0.1-0.1,0-0.2c-0.1-0.1-0.2-0.1-0.2-0.1
	s0-0.2-0.1-0.3C22.2,12,21.9,12,21.9,12l-0.1,0.1c-0.3-0.4-0.6-0.8-0.8-1.1c-0.3-0.3-0.5-0.5-0.8-0.7c0,0,0.1,0,0.1-0.2
	c0-0.2-0.3,0-0.3,0s-0.1-0.1-0.2-0.2c-0.2-0.1-0.2-0.1-0.2-0.1s0.2-0.5,0.4-0.9C20.2,8.4,19.8,8,19.8,8L19,9.8
	c-0.6-0.1-1.2-0.2-2-0.2l-0.1,0c0,0-0.1-0.7-0.2-1.2C16.5,8,16,8.1,16,8.1s0.2,1,0.2,1.2c0,0.2,0,0.3,0,0.3l-0.2,0l-0.3-0.1l0,0.2
	c-0.5,0.2-0.9,0.3-1.3,0.5C14,10.4,11.3,11,10.3,11l1.8,0.4c1.4-0.2,1.9-0.3,2.6-0.5c0.3-0.1,0.7-0.2,1-0.3l0,0.1
	c0,0,0.2,0.4,0.2,0.5c0,0.1,0,0.3,0.1,0.5c0.1,0.4,0.4,0.4,0.4,0.4l-0.1-1.4c0,0,0.1-0.2,0.3-0.3c0.2,0,0.3,0,0.3,0l0-0.1
	c0.6,0,1.2,0,1.6,0.1c0,0,0,0,0,0.2c0,0.1,0.4,0,0.4,0s0,0.1,0.2,0.2c0.2,0.1,0.4,0,0.4,0l0.1,0.2l0.3-0.1c0.2,0.1,0.4,0.3,0.5,0.5
	c0.3,0.3,0.6,0.7,0.9,1.1L20.8,13l-1,0.7c0,0,0.6,0.2,1.2-0.1c0.2-0.1,0.5-0.3,0.5-0.3s0,0.1,0.1,0.3c0.1,0.1,0.3,0.1,0.3,0.1
	l0.1,0.4l0.2,0c0.5,0.8,1,1.5,1.6,2.1l-0.5,0.6l-0.7,0.8c0,0,0.5,0.1,0.7-0.3c0.3-0.3,0.7-0.8,0.7-0.8s0,0.1,0.1,0.3
	c0.1,0.1,0.3,0.1,0.3,0.1l0.2,0.2l0.2-0.3c1.7,0.6,2.3,0.3,2.9,0.3c0.5-0.1,0.1-0.1,0.6-0.3l1.1-0.9C28.4,16.4,27.5,16.3,26.9,16.3"
	/>
<path class="st1" d="M9,11c0,0-0.5,0.1-0.4,0.5c0.1,0.4,0.6,0.3,0.6,0.3c0.9-0.1,1.1-0.2,1.8-0.1c2.1,0.2,4.4,1.5,5.9,3.2
	c1.9,2.1,3.5,3.3,5.5,3.7c2.4,0.4,4.5-0.3,7.5-2.4l0,0c0,0,0.8-0.5,0.6-0.9c-0.3-0.5-0.7-0.1-0.7-0.1l0,0c-2.3,1.7-4.3,2.9-6.9,2.5
	c-1.8-0.3-3.5-1.4-5.3-3.4c-1.9-2.2-4.2-3-5.8-3.3C10.3,10.8,9.3,11,9,11L9,11z"/>
<path class="st1" d="M35.1,8.8l0,0.2L35,9.2l-0.2,0.1l-0.1,0l-0.5,0c-0.1,0-0.1,0-0.2,0.1c-0.1,0-0.1,0.1-0.1,0.2
	c0,0.1,0.1,0.2,0.1,0.3l0.4,0.3l0.1,0.1l0.1,0l0.1,0.1l0.2,0.1c0.2,0.2,0.2,0.2,0.2,0.2c0.1,0.2,0.2,0.4,0.2,0.8c0,0.2,0,0.3,0,0.4
	l-0.1,0.3L35,12.4c-0.1,0.2-0.3,0.3-0.3,0.3c0,0-0.4,0.2-0.5,0.2l-0.4,0l-0.1,0l-0.3,0c-0.2,0-0.3,0-0.4-0.1
	c-0.1-0.1-0.1-0.1-0.1-0.2l0-0.2l0-0.2l0-0.3l0-0.2c0-0.1,0.2-0.2,0.3-0.2c0.1,0,0.2,0,0.3,0l0.1,0l0.3,0l0.2,0
	c0.1,0,0.2-0.1,0.2-0.3l0-0.2c0-0.1-0.1-0.1-0.2-0.2l-0.2-0.1l-0.2-0.1l-0.4-0.4L33,10.2c-0.1-0.2-0.1-0.2-0.2-0.4
	c-0.1-0.2-0.1-0.3-0.1-0.5c0-0.3,0-0.3,0.1-0.4c0-0.1,0.1-0.3,0.3-0.5c0.2-0.2,0.6-0.3,0.7-0.3c0,0,0.4,0,0.5,0
	c0.2,0,0.6,0.1,0.7,0.1c0.1,0,0.2,0.1,0.2,0.1l0,0.2l0,0.2V8.8z"/>
<path class="st1" d="M35.9,9.6L36,9.5l0-0.1l0-0.2l0-0.1L36,8.8l0.1-0.1l0.1,0l0.2,0l0.1,0l0.2,0C37,8.8,37,9,37,9l0,0.2l0,0.2
	c0,0,0,0.1,0.1,0.1l0.1,0l0.1,0l0.1,0l0.1,0.1l0,0.2l0,0.2l0,0.1c0,0.2-0.1,0.2-0.3,0.2L37,10.5l-0.1,0.2V11l0,0.1l0,0.1l0,0.2
	l0,0.2c0,0.3,0.1,0.3,0.2,0.3h0.1c0.1,0,0.1,0.2,0.1,0.2v0.3l0,0.2c0,0.3-0.3,0.3-0.5,0.3c-0.6,0-0.7-0.1-0.7-0.2L36,12.5l0-0.2
	l0-0.1c0,0,0-0.2,0-0.3l0-0.3l0-0.3c0-0.1,0-0.5,0-0.6c0-0.1,0-0.2-0.1-0.2l-0.1,0l-0.1-0.2l0-0.2l0-0.4C35.7,9.6,35.8,9.6,35.9,9.6
	L35.9,9.6z"/>
<path class="st1" d="M40.3,11.2L40.3,11.2l-0.1-0.2l-0.1-0.1l-0.1,0L40,11l-0.1,0.1l-0.1,0.1l0,0.1l-0.1,0.1l-0.1,0.1l-0.1,0.1
	l0,0.1l-0.1,0.1l-0.1,0.2l0,0l0.1,0l0.1,0h0c0,0,0,0,0.2,0c0.1,0,0.1,0,0.2-0.1c0.2-0.1,0.2-0.2,0.3-0.3
	C40.2,11.5,40.3,11.4,40.3,11.2 M38.8,11.1l0,0.3l0,0.1l0,0.1l0.1,0.1l0.1-0.1l0.1-0.1l0.1-0.2l0.1-0.2l0.1-0.1l0.1-0.2l0.1-0.2
	c-0.1-0.1-0.1-0.1-0.3-0.1l-0.2,0l-0.2,0.1l-0.2,0.2L38.8,11.1z M40.8,10L40.8,10l0.2,0.3c0.1,0.1,0.1,0.2,0.1,0.3
	c0.1,0.2,0.1,0.3,0.1,0.4l0,0.2l0,0.2v0c0,0.1-0.2,0.6-0.3,0.7l-0.1,0.2l-0.1,0.1c-0.1,0.1-0.3,0.2-0.4,0.3
	c-0.2,0.1-0.2,0.1-0.5,0.1c-0.2,0-0.2,0-0.3,0c-0.1,0-0.4,0-0.5,0l-0.2-0.1l-0.1-0.1l-0.1,0L38.5,13L38.4,13l-0.1,0L38.3,13l-0.1,0
	l-0.1-0.1c0,0,0,0,0.1-0.1l0.1-0.2c-0.1-0.1-0.3-0.3-0.3-0.3c-0.2-0.2-0.3-0.6-0.3-0.6l0-0.4c0-0.2,0-0.3,0.1-0.4l0.2-0.4l0.1-0.1
	c0.2-0.2,0.3-0.4,0.4-0.4l0.1-0.1l0.2-0.1l0.1,0c0.2,0,0.2-0.1,0.3-0.1l0.2,0l0.2,0c0.1,0,0.2,0,0.3,0c0.2,0,0.2,0.1,0.4,0.2
	c0.1-0.1,0.2-0.2,0.2-0.2l0.1-0.1l0.1,0l0.1,0.1l0.1,0l0.1,0.1c0,0.1,0,0.1-0.1,0.2L40.8,10L40.8,10z"/>
<path class="st1" d="M41.8,9.6l0.1-0.1l0-0.1l0-0.2l0-0.1L42,8.8l0.1-0.1l0.1,0l0.2,0l0.1,0l0.2,0c0.2,0,0.2,0.2,0.2,0.3l0,0.2
	l0,0.2c0,0,0,0.1,0.1,0.1l0.1,0l0.1,0l0.1,0l0.1,0.1l0,0.2l0,0.2l0,0.1c0,0.2-0.1,0.2-0.3,0.2L43,10.5l-0.1,0.2V11l0,0.1l0,0.1
	l0,0.2l0,0.2c0,0.3,0.1,0.3,0.2,0.3h0.1c0.1,0,0.1,0.2,0.1,0.2v0.3l0,0.2c0,0.3-0.3,0.3-0.5,0.3c-0.6,0-0.7-0.1-0.7-0.2L42,12.5
	l0-0.2l0-0.1c0,0,0-0.2,0-0.3l0-0.3l0-0.3c0-0.1,0-0.5,0-0.6c0-0.1,0-0.2-0.1-0.2l-0.1,0l-0.1-0.2l0-0.2l0-0.4
	C41.7,9.6,41.7,9.6,41.8,9.6L41.8,9.6z"/>
<path class="st1" d="M43.9,9.6l0.1-0.1l0-0.1l0-0.2l0-0.1L44,8.8l0.1-0.1l0.1,0l0.2,0l0.1,0l0.2,0c0.2,0,0.2,0.2,0.2,0.3l0,0.2
	l0,0.2c0,0,0,0.1,0.1,0.1l0.1,0l0.1,0l0.1,0l0.1,0.1l0,0.2l0,0.2l0,0.1c0,0.2-0.1,0.2-0.3,0.2L45,10.5l-0.1,0.2V11l0,0.1l0,0.1
	l0,0.2l0,0.2c0,0.3,0.1,0.3,0.2,0.3h0.1c0.1,0,0.1,0.2,0.1,0.2v0.3l0,0.2c0,0.3-0.3,0.3-0.5,0.3c-0.6,0-0.7-0.1-0.7-0.2L44,12.5
	l0-0.2l0-0.1c0,0,0-0.2,0-0.3l0-0.3l0-0.3c0-0.1,0-0.5,0-0.6c0-0.1,0-0.2-0.1-0.2l-0.1,0l-0.1-0.2l0-0.2l0-0.4
	C43.7,9.6,43.8,9.6,43.9,9.6L43.9,9.6z"/>
<path class="st1" d="M47,10.4c0,0-0.2,0.2-0.2,0.3c0,0.2,0.2,0.2,0.4,0.2l0.1,0l0.1,0l0.1,0l0.2,0c0.2,0,0.2,0,0.2-0.1
	c0-0.3-0.4-0.4-0.5-0.4C47.4,10.3,47.2,10.3,47,10.4 M45.8,10.7c0-0.1,0.1-0.3,0.2-0.4l0.3-0.3c0.3-0.3,0.7-0.5,1-0.5h0.3
	c0.3,0,0.5,0.1,0.6,0.1c0.4,0.2,0.7,0.6,0.7,0.7l0.1,0.1l0,0.1c0.1,0.2,0.1,0.6,0.1,0.7c0,0.2-0.1,0.3-0.2,0.3h-0.2
	c-0.1,0-0.5,0-0.6,0l-0.3,0l-0.3,0H47c-0.1,0-0.2,0-0.2,0.1c0,0.2,0.4,0.4,0.6,0.4l0.2,0l0.2,0l0.1,0l0.1,0l0.2,0l0.2,0
	c0.2-0.1,0.3-0.1,0.4-0.1c0.1,0,0.2,0,0.2,0.1l0,0.1c0,0,0,0.1,0,0.3l0,0.2l-0.1,0.1c-0.1,0.1-0.3,0.2-0.6,0.2c-0.2,0-0.2,0-0.3,0
	l-0.3,0l-0.3,0c-0.2,0-0.3,0-0.4-0.1l-0.5-0.2c-0.1,0-0.4-0.2-0.5-0.5c-0.2-0.3-0.2-0.8-0.2-0.9C45.8,11.2,45.8,10.8,45.8,10.7"/>
<path class="st1" d="M49.5,8.5l0-0.1c0-0.1,0.1-0.2,0.2-0.2l0.1,0l0.1,0l0.3,0l0.1,0c0.2,0,0.2,0.1,0.2,0.2v0.2l0,0.3l0,0.2l0,0.3
	c0,0.2,0,0.4,0,0.6c0,0.1,0,0.6,0.2,0.6l0.1,0l0.2-0.3l0.1-0.3c0-0.3,0-0.3,0.3-0.3l0.1,0l0.1,0l0.1,0l0.1,0l0.1,0
	c0.2,0,0.2,0.2,0.2,0.2l0,0.2l-0.1,0.2l0,0.1L52,10.4l0,0.1l-0.1,0.2c-0.2,0.3-0.2,0.3-0.2,0.4l0.1,0.2l0.1,0.1l0.1,0.2l0,0.1
	l0.1,0.2c0.1,0.1,0.2,0.2,0.2,0.3l0,0.1l0.1,0.1l0.1,0.1l0.1,0.1l0.1,0.1l-0.1,0.2l-0.1,0h-0.5l-0.2,0c-0.1,0-0.2-0.1-0.3-0.2l0-0.1
	l-0.1-0.1l-0.1-0.2c-0.1-0.2-0.1-0.2-0.2-0.3c-0.2-0.2-0.2-0.3-0.2-0.3c-0.1,0-0.2,0.1-0.2,0.2c0,0.1,0,0.2,0,0.3l0,0.1l0,0.2
	c0,0.1-0.1,0.2-0.1,0.2l-0.2,0l-0.2,0l-0.1,0l-0.2,0l-0.2-0.1l0-0.2l0-0.1v-0.1v-0.4v-0.3l0-0.3l0-0.4l0-0.4c0-0.1,0-0.5,0-0.6
	l0-0.5V9.1l0-0.2L49.5,8.5L49.5,8.5z"/>
<path class="st1" d="M55,10.8l-0.2-0.2l-0.2-0.1l-0.2,0c-0.1,0-0.3,0.1-0.3,0.1c-0.1,0.1-0.2,0.1-0.2,0.2c-0.1,0.1-0.2,0.2-0.2,0.4
	c0,0.2,0,0.3,0.1,0.4c0,0.1,0.1,0.2,0.3,0.3c0.1,0,0.3,0.1,0.3,0.1c0.3,0,0.5-0.3,0.6-0.3l0.1-0.1l0-0.1l0-0.3L55,10.8z M53.8,12.9
	c-0.2,0-0.5-0.2-0.6-0.3l-0.2-0.2L53,12.2L52.8,12c0,0-0.2-0.4-0.2-0.6l0-0.2l0-0.2l0-0.3l0.1-0.2l0.1-0.2c0.1-0.2,0.2-0.2,0.2-0.3
	l0.1,0l0.1-0.1l0.1-0.1l0.3-0.2c0.2-0.1,0.4-0.1,0.6-0.1l0.3,0c0.2,0,0.5,0.1,0.5,0.1l0.2,0.1l0.1,0.1c0.1,0.1,0.2,0.2,0.3,0.2
	l0.1,0.1l0.1,0.1l0.1,0.1c0,0,0.2,0.4,0.2,0.8l0,0.5L56,11.9c-0.1,0.2-0.1,0.2-0.1,0.3l-0.3,0.4l-0.3,0.2l-0.2,0.1l-0.1,0.1
	l-0.2,0.1l-0.5,0C54.2,12.9,53.8,12.9,53.8,12.9"/>
<path class="st1" d="M58.5,11.7l0-0.2l0-0.2v-0.2c0-0.1,0-0.3-0.1-0.4l-0.2-0.1L58,10.7c-0.1,0.1-0.2,0.2-0.2,0.3c0,0.1,0,0.1,0,0.3
	l0,0.2v0.2l0,0.2l0,0.3l0,0.1l0,0.2l0,0.1c0,0.2-0.1,0.3-0.2,0.3l-0.3,0l-0.1,0H57c-0.1,0-0.2,0-0.2-0.3c0-0.1,0-0.2,0-0.3l0-0.1
	l0-0.1l0-0.1l0-0.1l0-0.3l0-0.3l0-0.2l0-0.1l0-0.2l0-0.2l0-0.3V10l0-0.2c0-0.1,0.1-0.3,0.2-0.3l0.1,0h0.3l0.1,0h0.1l0.1,0.1l0.1,0.1
	l0,0.1l0.1,0c0.1-0.1,0.3-0.2,0.5-0.2l0.3,0c0.3,0,0.5,0.1,0.6,0.2l0.1,0.1l0.1,0l0.1,0l0.1-0.1c0.1-0.1,0.2-0.1,0.3-0.2
	c0.2,0,0.2,0,0.3,0h0.1l0.2,0C60.8,9.6,61,9.9,61,9.9l0.1,0.1l0,0.1l0,0.1c0,0.1,0,0.1,0,0.2l0,0.3l0,0.2c0,0.1,0,0.4,0,0.5l0,0.1
	l0,0.1l0,0.3c0,0.1,0,0.5,0,0.6c0,0.1-0.1,0.3-0.2,0.3l-0.1,0l-0.1,0l-0.2,0l-0.2,0c-0.1,0-0.2,0-0.2-0.2l0-0.2l0-0.3l0-0.2l0-0.2
	l0-0.5c0-0.6-0.2-0.7-0.4-0.7l-0.2,0.1c-0.1,0.1-0.1,0.1-0.1,0.3v0.3l0,0.5l0,0.2l0,0.2l0,0.2l0,0.1l0,0.2l0,0.2l-0.1,0.1l-0.1,0
	l-0.3,0h-0.1l-0.1,0c-0.2,0-0.2-0.2-0.2-0.3l0-0.3l0-0.1l0-0.2l0-0.2V11.7z"/>
<path class="st1" d="M62.6,8.4c0.3,0,0.3,0,0.3,0L63,8.6l0,0.2l0,0.3l-0.1,0.2c0,0.1-0.1,0.1-0.2,0.1l-0.3,0l-0.2,0
	c-0.2,0-0.3,0-0.3,0c-0.1-0.1-0.1-0.2-0.1-0.2l0-0.2l0-0.2V8.6c0-0.1,0.1-0.2,0.1-0.2l0.2,0l0.2,0L62.6,8.4z M62.5,9.6l0.1,0l0.1,0
	h0.1c0.1,0,0.2,0.2,0.2,0.2l0,0.1V10c0,0.1,0,0.1,0,0.2c0,0.1,0,0.2,0,0.4l0,0.3c0,0.1,0,0.5,0,0.6l0,0.3l0,0.2c0,0.1,0,0.1,0,0.4
	c0,0.2-0.1,0.4-0.3,0.4l-0.2,0c0,0,0,0-0.1,0l-0.2,0c0,0-0.2,0-0.2-0.2l0-0.5c0-0.1,0-0.2,0-0.3l0-0.3l0-0.3v-0.3c0-0.1,0-0.5,0-0.6
	l0-0.5l0-0.3l0-0.1c0-0.1,0.1-0.1,0.3-0.1L62.5,9.6z"/>
<path class="st1" d="M63.7,9.6l0.1-0.1l0-0.1l0-0.2l0-0.1l0.1-0.1l0.1-0.1l0.1,0l0.2,0l0.1,0l0.2,0c0.2,0,0.2,0.2,0.2,0.3l0,0.2
	l0,0.2c0,0,0,0.1,0.1,0.1l0.1,0l0.1,0l0.1,0l0.1,0.1l0,0.2l0,0.2l0,0.1c0,0.2-0.1,0.2-0.3,0.2l-0.2,0.1l-0.1,0.2V11l0,0.1l0,0.1
	l0,0.2l0,0.2c0,0.3,0.1,0.3,0.2,0.3H65c0.1,0,0.1,0.2,0.1,0.2v0.3l0,0.2c0,0.3-0.3,0.3-0.5,0.3c-0.6,0-0.7-0.1-0.7-0.2l-0.1-0.2
	l0-0.2l0-0.1c0,0,0-0.2,0-0.3l0-0.3l0-0.3c0-0.1,0-0.5,0-0.6c0-0.1,0-0.2-0.1-0.2l-0.1,0l-0.1-0.2l0-0.2l0-0.4
	C63.5,9.6,63.6,9.6,63.7,9.6L63.7,9.6z"/>
<path class="st1" d="M66.8,10.4c0,0-0.2,0.2-0.2,0.3c0,0.2,0.2,0.2,0.4,0.2l0.1,0l0.1,0l0.1,0l0.2,0c0.2,0,0.2,0,0.2-0.1
	c0-0.3-0.4-0.4-0.5-0.4C67.2,10.3,67,10.3,66.8,10.4 M65.6,10.7c0-0.1,0.1-0.3,0.2-0.4L66,10c0.3-0.3,0.7-0.5,1-0.5h0.3
	c0.3,0,0.5,0.1,0.6,0.1c0.4,0.2,0.7,0.6,0.7,0.7l0.1,0.1l0,0.1c0.1,0.2,0.1,0.6,0.1,0.7c0,0.2-0.1,0.3-0.2,0.3h-0.2
	c-0.1,0-0.5,0-0.6,0l-0.3,0l-0.3,0h-0.2c-0.1,0-0.2,0-0.2,0.1c0,0.2,0.4,0.4,0.6,0.4l0.2,0l0.2,0l0.1,0l0.1,0l0.2,0l0.2,0
	c0.2-0.1,0.3-0.1,0.4-0.1c0.1,0,0.2,0,0.2,0.1l0,0.1c0,0,0,0.1,0,0.3l0,0.2l-0.1,0.1c-0.1,0.1-0.3,0.2-0.6,0.2c-0.2,0-0.2,0-0.3,0
	l-0.3,0l-0.3,0c-0.2,0-0.3,0-0.4-0.1l-0.5-0.2c-0.1,0-0.4-0.2-0.5-0.5c-0.2-0.3-0.2-0.8-0.2-0.9C65.6,11.2,65.6,10.8,65.6,10.7"/>
<path class="st1" d="M70.5,10.4c0,0-0.2,0.2-0.2,0.3c0,0.2,0.2,0.2,0.4,0.2l0.1,0l0.1,0l0.1,0l0.2,0c0.2,0,0.2,0,0.2-0.1
	c0-0.3-0.4-0.4-0.5-0.4C70.9,10.3,70.6,10.3,70.5,10.4 M69.3,10.7c0-0.1,0.1-0.3,0.2-0.4l0.2-0.3c0.3-0.3,0.7-0.5,1-0.5H71
	c0.3,0,0.5,0.1,0.6,0.1c0.4,0.2,0.7,0.6,0.7,0.7l0.1,0.1l0,0.1c0.1,0.2,0.1,0.6,0.1,0.7c0,0.2-0.1,0.3-0.2,0.3h-0.2
	c-0.1,0-0.5,0-0.6,0l-0.3,0l-0.3,0h-0.2c-0.1,0-0.2,0-0.2,0.1c0,0.2,0.4,0.4,0.6,0.4l0.2,0l0.2,0l0.1,0l0.1,0l0.2,0l0.2,0
	c0.2-0.1,0.3-0.1,0.4-0.1c0.1,0,0.2,0,0.2,0.1l0,0.1c0,0,0,0.1,0,0.3l0,0.2l-0.1,0.1c-0.1,0.1-0.3,0.2-0.6,0.2c-0.2,0-0.2,0-0.3,0
	l-0.3,0l-0.3,0c-0.2,0-0.3,0-0.4-0.1L70,12.7c-0.1,0-0.4-0.2-0.5-0.5c-0.2-0.3-0.2-0.8-0.2-0.9C69.2,11.2,69.3,10.8,69.3,10.7"/>
<path class="st1" d="M74.1,11.4l0,0.3c0,0.1,0,0.7,0,0.9c0,0.2-0.2,0.3-0.3,0.3l-0.3,0l-0.2,0c-0.3,0-0.4,0-0.4-0.3l0-0.2v-0.5
	l0-0.3v-0.2l0-0.2l0-0.3l0-0.5l0-0.4V9.8c0-0.2,0.1-0.3,0.2-0.3l0.1,0l0.2,0l0.1,0c0,0,0.1,0,0.2,0l0.2,0l0,0.1l0,0l0.2-0.1l0.2-0.1
	l0.3,0l0.2,0H75l0.4,0.1l0.3,0.2l0.2,0.3c0,0.1,0.1,0.3,0.1,0.5l0,0.3l0,0.3l0,0.4l0,0.4l0,0.4l0,0.2c0,0.1,0,0.1,0,0.2l-0.1,0.1
	l-0.1,0h-0.3l-0.2,0l-0.2,0c-0.1,0-0.1-0.2-0.1-0.4l0-0.3l0-0.3l0-0.2c0-0.1,0-0.2,0-0.3c0-0.1,0-0.4-0.1-0.6c0-0.1-0.1-0.1-0.3-0.1
	l-0.2,0.1l-0.1,0.2l-0.1,0.5V11.4z"/>
<path class="st1" d="M33.8,14l0.3,0h0.1l0.2,0l0.1,0.2l0,0.2l0,0.2l0,0.2l0,0.1L34.3,15l-0.2,0c-0.3,0-0.4,0-0.4,0.2l0.1,0.2l0.2,0
	l0.1,0c0.2,0,0.2,0.2,0.2,0.3l0,0.3l0,0.2c0,0.1,0,0.1-0.1,0.2c0,0,0,0-0.2,0c-0.3,0-0.3,0.2-0.3,0.3l0,0.2l0,0.4c0,0.1,0,0.2,0,0.3
	l0,0.4l0,0.1l0,0.2l0,0.2c0,0.1-0.1,0.3-0.3,0.3l-0.1,0l-0.2,0l-0.2,0H33l-0.1,0c0,0-0.1,0-0.1-0.3l0-0.2v-0.3l0-0.2l0-0.3l0-0.3
	l0-0.4l0-0.1c0-0.1,0-0.1-0.1-0.1l-0.1,0c-0.1,0-0.1-0.1-0.1-0.3l0-0.2l0-0.2l0-0.3c0-0.1,0-0.1,0.1-0.1c0.1,0,0.1,0,0.1-0.1
	c0-0.1,0-0.1,0-0.2c0-0.6,0-0.6,0.2-0.8c0.1-0.1,0.1-0.1,0.2-0.2c0.2-0.1,0.2-0.1,0.4-0.1L33.8,14z"/>
<path class="st1" d="M37.2,16.7l-0.2-0.2l-0.2-0.1l-0.2,0c-0.1,0-0.3,0.1-0.3,0.1c-0.1,0.1-0.2,0.1-0.2,0.2
	c-0.1,0.1-0.2,0.2-0.2,0.4c0,0.2,0,0.3,0.1,0.4c0,0.1,0.1,0.2,0.3,0.3c0.1,0,0.3,0.1,0.3,0.1c0.3,0,0.5-0.3,0.6-0.3l0.1-0.1l0-0.1
	l0-0.3L37.2,16.7z M36,18.7c-0.2,0-0.5-0.2-0.6-0.3l-0.2-0.2l-0.1-0.1L35,17.9c0,0-0.2-0.4-0.2-0.6l0-0.2l0-0.2l0-0.3l0.1-0.3
	l0.1-0.2c0.1-0.2,0.2-0.2,0.2-0.3l0.1,0l0.1-0.1l0.1-0.1l0.3-0.2c0.2-0.1,0.4-0.1,0.6-0.1l0.3,0c0.2,0,0.5,0.1,0.5,0.1l0.2,0.1
	l0.1,0.1c0.1,0.1,0.2,0.2,0.3,0.2l0.1,0.1l0.1,0.1l0.1,0.1c0,0,0.2,0.4,0.2,0.8l0,0.5l-0.1,0.3c-0.1,0.2-0.1,0.2-0.1,0.3l-0.3,0.4
	l-0.3,0.2l-0.2,0.1l-0.1,0.1L37,18.8l-0.5,0C36.4,18.8,36,18.7,36,18.7"/>
<path class="st1" d="M38.9,15.7c0-0.3,0.2-0.3,0.2-0.3l0.1,0h0.1l0.2,0l0.2,0c0.1,0,0.2,0.1,0.2,0.2c0,0.1,0,0.1,0.1,0.1l0.1-0.1
	l0.1-0.1c0-0.1,0.2-0.2,0.4-0.2c0.1,0,0.3,0,0.3,0.2l0,0.1l0,0.1l0,0.2l0,0.2l0,0.1v0.2c0,0.2-0.1,0.2-0.3,0.2c-0.1,0-0.1,0-0.3,0.1
	c-0.2,0.1-0.2,0.1-0.4,0.4l0,0.1l0,0.1v0.3l0,0.3l0,0.2l0,0.1l0,0.2c0,0.1,0,0.2-0.1,0.3l-0.2,0.1l-0.3,0l-0.2,0l-0.2,0
	c-0.1,0-0.1,0-0.2-0.1l0-0.2l0-0.3v-0.2l0-0.2l0-0.3c0-0.2,0-0.3,0-0.3l0-0.2l0-0.3l0-0.1l0-0.1l0-0.2v-0.2l0-0.2V15.7z"/>
<path class="st1" d="M43.8,16.9l-0.1-0.4l0-0.1l-0.1-0.2l0-0.1l0-0.2c0-0.1-0.1-0.2-0.1-0.3l0-0.2l0-0.2l0-0.1l0-0.2l0-0.2
	c0-0.1-0.1-0.2-0.1-0.3c0-0.2,0.1-0.2,0.2-0.2l0.2,0l0.2,0l0.1,0l0.1,0c0.1,0,0.2,0.1,0.2,0.1l0.1,0.3c0,0.1,0.1,0.3,0.1,0.4
	l0.1,0.4l0,0.1l0,0.2l0.1,0.2l0,0.2l0,0.2l0,0.2l0,0.1l0,0.2c0,0.1,0.1,0.3,0.1,0.3l0,0l0-0.1c0-0.1,0.2-0.7,0.2-0.7l0-0.2l0.2-0.7
	l0-0.2l0.1-0.4l0.1-0.3l0-0.1c0-0.2,0.1-0.3,0.2-0.3l0.1,0l0.1,0l0.1,0l0.1,0h0.1h0l0,0h0h0l0.2,0c0.1,0,0.2,0.1,0.2,0.1l0,0.1
	l0,0.2c0,0.1,0,0.2-0.1,0.3c0,0.2-0.1,0.3-0.1,0.5c0,0.1-0.1,0.3-0.1,0.4l0,0.2l0,0.1l0,0.1l0,0.1l-0.1,0.5l-0.1,0.2
	c0,0.1-0.1,0.5-0.1,0.6L46,17.9l-0.1,0.3l0,0.2l0,0.1l0,0.1l-0.1,0.2c-0.1,0.1-0.1,0.1-0.2,0.1l-0.3,0l-0.2,0l-0.2,0h-0.2l-0.1,0
	l-0.1,0c-0.1,0-0.2,0-0.2-0.1C44.1,18.4,44,18,44,17.7l0-0.1l0-0.1l0-0.2l0-0.1L43.8,16.9z"/>
<path class="st1" d="M48.1,16.3c0,0-0.2,0.2-0.2,0.3c0,0.2,0.2,0.2,0.4,0.2l0.1,0l0.1,0l0.1,0l0.2,0c0.2,0,0.2,0,0.2-0.1
	c0-0.3-0.4-0.4-0.5-0.4C48.5,16.2,48.3,16.2,48.1,16.3 M46.9,16.5c0-0.1,0.1-0.3,0.2-0.4l0.3-0.3c0.3-0.3,0.7-0.5,1-0.5h0.3
	c0.3,0,0.5,0.1,0.6,0.1c0.4,0.2,0.7,0.6,0.7,0.7l0.1,0.1l0,0.1c0.1,0.2,0.1,0.6,0.1,0.7c0,0.2-0.1,0.3-0.2,0.3h-0.2
	c-0.1,0-0.5,0-0.6,0l-0.3,0l-0.3,0h-0.2c-0.1,0-0.2,0-0.2,0.1c0,0.2,0.4,0.4,0.6,0.4l0.2,0l0.2,0l0.1,0l0.1,0l0.2,0l0.2,0
	c0.2-0.1,0.3-0.1,0.4-0.1c0.1,0,0.2,0,0.2,0.1l0,0.1c0,0,0,0.1,0,0.3l0,0.2l-0.1,0.1c-0.1,0.1-0.3,0.2-0.6,0.2c-0.2,0-0.2,0-0.3,0
	l-0.3,0l-0.3,0c-0.2,0-0.3,0-0.4-0.1l-0.5-0.2c-0.1,0-0.4-0.2-0.5-0.5c-0.2-0.3-0.2-0.8-0.2-0.9C46.9,17.1,46.9,16.7,46.9,16.5"/>
<path class="st1" d="M50.6,16.1c0-0.2,0-0.3,0.1-0.4c0.1-0.1,0.3-0.3,0.5-0.3c0.1,0,0.3-0.1,0.4-0.1l0.6,0l0.2,0
	c0.1,0,0.3,0.1,0.3,0.2l0,0.3l0,0.2c0,0.1,0,0.2-0.2,0.2c-0.1,0-0.1,0-0.2,0c-0.1,0-0.1,0-0.3,0l-0.1,0l-0.1,0.1c0,0,0,0.1,0.3,0.2
	c0.2,0.1,0.3,0.2,0.5,0.3l0.1,0.1l0.1,0.1c0.1,0.1,0.1,0.2,0.2,0.3c0,0.1,0,0.1,0,0.2l0,0.2c0,0.2-0.2,0.7-0.6,0.8
	c-0.3,0.1-0.4,0.1-0.7,0.1c-0.2,0-0.6,0-0.9-0.2c-0.1,0-0.2-0.1-0.2-0.2l0-0.2l0-0.2l0-0.1c0-0.1,0.1-0.1,0.2-0.1l0.2,0l0.2,0l0.1,0
	l0.2,0c0.1,0,0.2-0.1,0.3-0.1l0-0.1c0-0.2-0.2-0.3-0.5-0.4C51.1,17.1,51,17,50.9,17l-0.1-0.1l-0.1-0.1c-0.1-0.1-0.2-0.3-0.2-0.5
	L50.6,16.1z"/>
<path class="st1" d="M53.5,15.4l0.1-0.1l0-0.1l0-0.2l0-0.1l0.1-0.1l0.1-0.1l0.1,0l0.2,0l0.1,0l0.2,0c0.2,0,0.2,0.2,0.2,0.3l0,0.2
	l0,0.2c0,0,0,0.1,0.1,0.1l0.1,0l0.1,0l0.1,0l0.1,0.1l0,0.2l0,0.2l0,0.1c0,0.2-0.1,0.2-0.3,0.2l-0.2,0.1l-0.1,0.2v0.2l0,0.1l0,0.1
	l0,0.2l0,0.2c0,0.3,0.1,0.3,0.2,0.3h0.1c0.1,0,0.1,0.2,0.1,0.2v0.3l0,0.2c0,0.3-0.3,0.3-0.5,0.3c-0.6,0-0.7-0.1-0.7-0.2l-0.1-0.2
	l0-0.2l0-0.1c0,0,0-0.2,0-0.3l0-0.2l0-0.3c0-0.1,0-0.5,0-0.6c0-0.1,0-0.2-0.1-0.2l-0.1,0l-0.1-0.2l0-0.2l0-0.4
	C53.3,15.5,53.4,15.4,53.5,15.4L53.5,15.4z"/>
<path class="st1" d="M56,16.5l0.2,0l0.2,0l0.2,0l0.3,0c0.1,0,0.2,0.1,0.2,0.1l0,0.4l0,0.2l0,0.1c0,0.1-0.2,0.2-0.2,0.2l-0.1,0
	l-0.2,0l-0.2,0l-0.2,0l-0.2,0l-0.2,0c-0.1,0-0.2,0-0.2-0.2l0-0.4l0-0.3c0-0.1,0.1-0.1,0.2-0.1h0.1L56,16.5z"/>
<path class="st1" d="M60,14.7l0,0.2L59.9,15l-0.2,0.1l-0.1,0l-0.5,0c-0.1,0-0.1,0-0.2,0.1c-0.1,0-0.1,0.1-0.1,0.2
	c0,0.1,0.1,0.2,0.1,0.3l0.4,0.3l0.1,0.1l0.1,0l0.1,0.1l0.2,0.1c0.2,0.2,0.2,0.2,0.2,0.2c0.1,0.2,0.2,0.4,0.2,0.8c0,0.2,0,0.3,0,0.4
	L60,18l-0.1,0.2c-0.1,0.2-0.3,0.3-0.3,0.3c0,0-0.4,0.2-0.5,0.2l-0.4,0l-0.1,0l-0.3,0c-0.2,0-0.3,0-0.4-0.1c-0.1-0.1-0.1-0.1-0.1-0.2
	l0-0.2l0-0.2l0-0.3l0-0.2c0-0.1,0.2-0.2,0.3-0.2c0.1,0,0.2,0,0.3,0l0.1,0l0.3,0l0.2,0c0.1,0,0.2-0.1,0.2-0.3l0-0.2
	c0-0.1-0.1-0.1-0.2-0.2l-0.2-0.1l-0.2-0.1l-0.4-0.4l-0.2-0.2c-0.1-0.2-0.1-0.2-0.2-0.4c-0.1-0.2-0.1-0.3-0.1-0.5
	c0-0.3,0-0.3,0.1-0.4c0-0.1,0.1-0.3,0.3-0.5c0.2-0.2,0.6-0.3,0.7-0.3c0,0,0.4,0,0.5,0c0.2,0,0.6,0.1,0.7,0.1c0.1,0,0.2,0.1,0.2,0.1
	l0,0.2l0,0.2V14.7z"/>
<path class="st1" d="M62,17.4l-0.2,0.1c-0.1,0-0.2,0.1-0.2,0.2c0,0.1,0,0.2,0.2,0.2l0.3,0.1l0.2,0c0.1,0,0.1,0,0.2-0.1
	c0.1,0,0.2-0.1,0.2-0.2l-0.1-0.2l-0.3-0.1l-0.1,0L62,17.4L62,17.4z M60.9,15.8l0.1-0.2l0.2-0.1l0.3-0.1c0.1,0,0.2-0.1,0.2-0.1
	c0.1,0,0.3,0,0.6,0c0.2,0,0.6,0,0.8,0.1c0.1,0.1,0.3,0.2,0.4,0.2l0.1,0.1l0.1,0.1c0,0.1,0.1,0.2,0.1,0.4c0,0.1,0,0.5,0,0.6l0,0.2
	l0,0.2l0,0.2l0,0.3l0,0.2l0,0.4l0,0.2c0,0.2-0.2,0.2-0.3,0.2h-0.2l-0.3,0l-0.1-0.1l0-0.1l-0.1,0l-0.1,0c-0.1,0.1-0.1,0.1-0.2,0.1
	c-0.1,0-0.2,0-0.4,0l-0.4,0c-0.1,0-0.3-0.1-0.5-0.2l-0.3-0.3l-0.1-0.3c0-0.1,0-0.2,0-0.3l0-0.1c0-0.1,0-0.1,0-0.2
	c0-0.1,0.1-0.2,0.1-0.2l0.1-0.1l0.1-0.1l0.3-0.2l0.1,0c0.1,0,0.1-0.1,0.2-0.1l0.2,0l0.1,0l0.1,0l0.1,0l0,0l0.1,0h0l0.1,0l0.1-0.1
	c0-0.1-0.1-0.1-0.2-0.2l-0.3,0l-0.4,0l-0.2,0.1l-0.1,0l-0.1,0l-0.1,0l-0.2,0.1c-0.1,0-0.2-0.1-0.2-0.2l0-0.2l0-0.1L60.9,15.8
	L60.9,15.8z"/>
<path class="st1" d="M65,14.1l0.2,0c0.1,0,0.2,0.1,0.2,0.2l0,0.1v0.1l0,0.2l0,0.3l0,0.2l0,0.1l0,0.2c0,0.1,0,0.1,0.1,0.1l0.1,0
	l0.2-0.1l0.3-0.1l0.3,0l0.2,0l0.2,0.1c0.3,0.1,0.3,0.2,0.4,0.2l0.2,0.2l0,0.1c0.1,0.2,0.1,0.3,0.1,0.5l0,0.4l0,0.3l0,0.2v0.1l0,0.3
	v0.2l0,0.2l0,0.2l-0.1,0.2L67,18.7l-0.2,0l-0.2,0l-0.3,0c-0.1,0-0.1-0.1-0.1-0.2l0-0.1l0-0.1l0-0.2v-0.2l0-0.2l0-0.1l0-0.3
	c0,0,0-0.4-0.1-0.5l-0.1-0.1c0-0.1-0.2-0.1-0.3-0.1l-0.2,0.1l-0.2,0.2c-0.1,0.2-0.1,0.4-0.1,0.6l0,0.3c0,0.1,0,0.2,0,0.3l0,0.3
	l0,0.2l0,0.1l-0.1,0.2l-0.1,0l-0.3,0l-0.3,0l-0.2-0.1c-0.1-0.1-0.1-0.1-0.1-0.2v-0.2l0-0.3c0-0.2,0-0.6,0-0.8V17c0-0.1,0-0.5,0-0.6
	v-0.2V16l0-0.3c0-0.1,0-0.2,0-0.3l0-0.2l0-0.1v-0.4l0-0.3c0-0.2,0-0.4,0.2-0.4l0.3,0H65z"/>
<path class="st1" d="M69.2,17.4L69,17.4c-0.1,0-0.2,0.1-0.2,0.2c0,0.1,0,0.2,0.2,0.2l0.3,0.1l0.2,0c0.1,0,0.1,0,0.2-0.1
	c0.1,0,0.2-0.1,0.2-0.2l-0.1-0.2l-0.3-0.1l-0.1,0L69.2,17.4L69.2,17.4z M68.1,15.8l0.1-0.2l0.2-0.1l0.3-0.1c0.1,0,0.2-0.1,0.2-0.1
	c0.1,0,0.3,0,0.6,0s0.6,0,0.8,0.1c0.1,0.1,0.3,0.2,0.4,0.2l0.1,0.1l0.1,0.1c0,0.1,0.1,0.2,0.1,0.4c0,0.1,0,0.5,0,0.6l0,0.2l0,0.2
	l0,0.2l0,0.3l0,0.2l0,0.4l0,0.2c0,0.2-0.2,0.2-0.3,0.2h-0.2l-0.3,0l-0.1-0.1l0-0.1l-0.1,0l-0.1,0c-0.1,0.1-0.1,0.1-0.2,0.1
	c-0.1,0-0.2,0-0.4,0l-0.4,0c-0.1,0-0.4-0.1-0.5-0.2L68,18.2l-0.1-0.3c0-0.1,0-0.2,0-0.3l0-0.1c0-0.1,0-0.1,0-0.2
	c0-0.1,0.1-0.2,0.1-0.2l0.1-0.1l0.1-0.1l0.3-0.2l0.1,0c0.1,0,0.1-0.1,0.2-0.1l0.2,0l0.1,0l0.1,0l0.1,0l0,0l0.1,0h0l0.1,0l0.1-0.1
	c0-0.1-0.1-0.1-0.2-0.2l-0.3,0l-0.4,0l-0.2,0.1l-0.1,0l-0.1,0l-0.1,0l-0.2,0.1c-0.1,0-0.2-0.1-0.2-0.2l0-0.2l0-0.1L68.1,15.8
	L68.1,15.8z"/>
<path class="st1" d="M71.5,15.7c0-0.3,0.2-0.3,0.2-0.3l0.1,0H72l0.2,0l0.2,0c0.1,0,0.2,0.1,0.2,0.2c0,0.1,0,0.1,0.1,0.1l0.1-0.1
	l0.1-0.1c0-0.1,0.2-0.2,0.4-0.2c0.1,0,0.3,0,0.3,0.2l0,0.1l0,0.1l0,0.2l0,0.2l0,0.1v0.2c0,0.2-0.1,0.2-0.3,0.2c-0.1,0-0.1,0-0.3,0.1
	c-0.2,0.1-0.2,0.1-0.4,0.4l0,0.1l0,0.1v0.3l0,0.3l0,0.2l0,0.1l0,0.2c0,0.1,0,0.2-0.1,0.3l-0.2,0.1l-0.3,0l-0.2,0l-0.2,0
	c-0.1,0-0.1,0-0.2-0.1l0-0.2l0-0.3v-0.2l0-0.2l0-0.3c0-0.2,0-0.3,0-0.3l0-0.2l0-0.3l0-0.1l0-0.1l0-0.2v-0.2l0-0.2V15.7z"/>
<path class="st1" d="M75.2,17.4L75,17.4c-0.1,0-0.2,0.1-0.2,0.2c0,0.1,0,0.2,0.2,0.2l0.3,0.1l0.2,0c0.1,0,0.1,0,0.2-0.1
	c0.1,0,0.2-0.1,0.2-0.2l-0.1-0.2l-0.3-0.1l-0.1,0L75.2,17.4L75.2,17.4z M74.1,15.8l0.1-0.2l0.2-0.1l0.3-0.1c0.1,0,0.2-0.1,0.2-0.1
	c0.1,0,0.3,0,0.6,0c0.2,0,0.6,0,0.8,0.1c0.1,0.1,0.3,0.2,0.4,0.2l0.1,0.1l0.1,0.1c0,0.1,0.1,0.2,0.1,0.4c0,0.1,0,0.5,0,0.6l0,0.2
	l0,0.2l0,0.2l0,0.3l0,0.2l0,0.4l0,0.2c0,0.2-0.2,0.2-0.3,0.2h-0.2l-0.3,0l-0.1-0.1l0-0.1l-0.1,0l-0.1,0c-0.1,0.1-0.1,0.1-0.2,0.1
	c-0.1,0-0.2,0-0.4,0l-0.4,0c-0.1,0-0.3-0.1-0.5-0.2L74,18.2l-0.1-0.3c0-0.1,0-0.2,0-0.3l0-0.1c0-0.1,0-0.1,0-0.2
	c0-0.1,0.1-0.2,0.1-0.2l0.1-0.1l0.1-0.1l0.3-0.2l0.1,0c0.1,0,0.1-0.1,0.2-0.1l0.2,0l0.1,0l0.1,0l0.1,0l0,0l0.1,0h0l0.1,0l0.1-0.1
	c0-0.1-0.1-0.1-0.2-0.2l-0.3,0l-0.3,0l-0.2,0.1l-0.1,0l-0.1,0l-0.1,0l-0.2,0.1c-0.1,0-0.2-0.1-0.2-0.2l0-0.2l0-0.1L74.1,15.8
	L74.1,15.8z"/>
</svg>
