<?xml version="1.0" encoding="utf-8"?>
<!-- Generator: Adobe Illustrator 19.0.0, SVG Export Plug-In . SVG Version: 6.00 Build 0)  -->
<svg version="1.1" id="Layer_1" xmlns="http://www.w3.org/2000/svg" xmlns:xlink="http://www.w3.org/1999/xlink" x="0px" y="0px"
	 viewBox="-6.1 308.2 195.1 198.4" style="enable-background:new -6.1 308.2 195.1 198.4;" xml:space="preserve">
<style type="text/css">
	.st0{clip-path:url(#SVGID_2_);fill:#8BB3D2;}
	.st1{clip-path:url(#SVGID_4_);fill:#8BB3D2;}
	.st2{clip-path:url(#SVGID_6_);fill:#8BB3D2;}
	.st3{clip-path:url(#SVGID_8_);fill:#8BB3D2;}
	.st4{clip-path:url(#SVGID_10_);fill:#8BB3D2;}
	.st5{clip-path:url(#SVGID_12_);fill:#8BB3D2;}
	.st6{clip-path:url(#SVGID_14_);fill:#8BB3D2;}
	.st7{clip-path:url(#SVGID_16_);fill:#8BB3D2;}
	.st8{clip-path:url(#SVGID_18_);fill:#8BB3D2;}
	.st9{clip-path:url(#SVGID_20_);fill:#8BB3D2;}
	.st10{clip-path:url(#SVGID_22_);fill:#8BB3D2;}
	.st11{clip-path:url(#SVGID_24_);fill:#8BB3D2;}
	.st12{clip-path:url(#SVGID_26_);fill:#8BB3D2;}
	.st13{clip-path:url(#SVGID_28_);fill:#8BB3D2;}
	.st14{clip-path:url(#SVGID_30_);fill:#8BB3D2;}
	.st15{clip-path:url(#SVGID_32_);fill:#8BB3D2;}
	.st16{clip-path:url(#SVGID_34_);fill:#8BB3D2;}
	.st17{clip-path:url(#SVGID_36_);fill:#8BB3D2;}
	.st18{clip-path:url(#SVGID_38_);fill:#B20E10;}
	.st19{clip-path:url(#SVGID_40_);fill:none;stroke:#FFFFFF;stroke-width:0.323;}
	.st20{clip-path:url(#SVGID_42_);fill:none;stroke:#FFFFFF;stroke-width:0.323;stroke-dasharray:1.551,0.581;}
	.st21{clip-path:url(#SVGID_48_);fill:none;stroke:#FFFFFF;stroke-width:0.323;stroke-miterlimit:10;}
	.st22{fill:#FFFFFF;}
</style>
<g>
	<g>
		<defs>
			<rect id="SVGID_1_" x="-6.1" y="308.2" width="195.1" height="198.4"/>
		</defs>
		<clipPath id="SVGID_2_">
			<use xlink:href="#SVGID_1_"  style="overflow:visible;"/>
		</clipPath>
		<polygon class="st0" points="80.6,309.6 63.8,309.6 60.7,312.7 59.4,312.7 52.5,312.7 51.3,311.4 40,322.7 40,327.1 34.4,332.7 
			42.5,332.7 42.5,337.7 35,337.7 35,344.5 31.9,344.5 31.9,350.8 24.4,350.8 24.4,365.2 20.7,368.9 22.5,370.8 23.2,371.4 
			23.2,372.7 23.2,375.2 23.2,377 25,378.9 28.8,382.7 28.8,387.7 32.5,391.4 41.3,400.2 41.9,399.5 46.9,394.5 52.5,394.5 
			53.2,395.2 56.3,398.3 60.7,393.9 61.9,392.7 63.8,392.7 67.5,392.7 69.4,392.7 75,398.3 80.6,398.3 82.5,398.3 82.5,403.9 
			82.5,407.7 82.5,408.9 81.3,410.2 81.3,414.5 87.5,420.8 88.8,422 90,423.3 90,424.5 90,426.4 90,437.7 93.1,440.8 93.1,444.5 
			88.8,448.9 88.8,460.1 88.8,461.4 91.9,464.5 91.9,468.9 95,472 95,484.5 98.8,488.3 98.8,493.9 102.5,497.6 102.5,505.1 
			120,505.1 135,490.1 135,483.9 135,482.6 141.3,476.4 141.3,463.9 146.9,458.3 151.3,458.3 155,454.5 155,438.9 154.4,438.3 
			152.5,436.4 152.5,425.8 152.5,420.8 156.3,417 158.1,417 158.1,414.5 158.1,413.3 176.2,395.2 176.2,386.4 179.4,383.3 
			179.4,378.9 166.3,378.9 163.1,382 161.3,380.2 160,378.9 163.8,378.9 161.3,376.4 150.6,365.8 150.6,363.3 150.6,362 145.6,357 
			145.6,349.5 145.6,348.3 142.5,345.2 141.3,343.9 141.3,338.3 133.1,330.2 135,328.3 138.1,331.4 140,329.6 133.1,322.7 
			128.1,322.7 126.9,323.9 117.5,323.9 115.6,323.9 111.3,319.6 105.6,319.6 105.6,327.1 104.4,327.1 101.9,324.6 99.4,324.6 
			95,320.2 87.5,320.2 85,318.3 86.3,317.1 86.3,309.6 		"/>
	</g>
	<g>
		<defs>
			<rect id="SVGID_3_" x="-6.1" y="308.2" width="195.1" height="198.4"/>
		</defs>
		<clipPath id="SVGID_4_">
			<use xlink:href="#SVGID_3_"  style="overflow:visible;"/>
		</clipPath>
		<rect x="24.9" y="317.7" class="st1" width="0.6" height="0.6"/>
	</g>
	<g>
		<defs>
			<rect id="SVGID_5_" x="-6.1" y="308.2" width="195.1" height="198.4"/>
		</defs>
		<clipPath id="SVGID_6_">
			<use xlink:href="#SVGID_5_"  style="overflow:visible;"/>
		</clipPath>
		<rect x="21.9" y="330.8" class="st2" width="0.6" height="0.6"/>
	</g>
	<g>
		<defs>
			<rect id="SVGID_7_" x="-6.1" y="308.2" width="195.1" height="198.4"/>
		</defs>
		<clipPath id="SVGID_8_">
			<use xlink:href="#SVGID_7_"  style="overflow:visible;"/>
		</clipPath>
		<rect x="24.4" y="331.9" class="st3" width="0.6" height="0.6"/>
	</g>
	<g>
		<defs>
			<rect id="SVGID_9_" x="-6.1" y="308.2" width="195.1" height="198.4"/>
		</defs>
		<clipPath id="SVGID_10_">
			<use xlink:href="#SVGID_9_"  style="overflow:visible;"/>
		</clipPath>
		<rect x="26.3" y="331.9" class="st4" width="0.6" height="0.6"/>
	</g>
	<g>
		<defs>
			<rect id="SVGID_11_" x="-6.1" y="308.2" width="195.1" height="198.4"/>
		</defs>
		<clipPath id="SVGID_12_">
			<use xlink:href="#SVGID_11_"  style="overflow:visible;"/>
		</clipPath>
		<rect x="30" y="331.9" class="st5" width="0.6" height="0.6"/>
	</g>
	<g>
		<defs>
			<rect id="SVGID_13_" x="-6.1" y="308.2" width="195.1" height="198.4"/>
		</defs>
		<clipPath id="SVGID_14_">
			<use xlink:href="#SVGID_13_"  style="overflow:visible;"/>
		</clipPath>
		<rect x="21.3" y="333.1" class="st6" width="0.6" height="0.6"/>
	</g>
	<g>
		<defs>
			<rect id="SVGID_15_" x="-6.1" y="308.2" width="195.1" height="198.4"/>
		</defs>
		<clipPath id="SVGID_16_">
			<use xlink:href="#SVGID_15_"  style="overflow:visible;"/>
		</clipPath>
		<rect x="20.8" y="380.3" class="st7" width="0.6" height="0.6"/>
	</g>
	<g>
		<defs>
			<rect id="SVGID_17_" x="-6.1" y="308.2" width="195.1" height="198.4"/>
		</defs>
		<clipPath id="SVGID_18_">
			<use xlink:href="#SVGID_17_"  style="overflow:visible;"/>
		</clipPath>
		<rect x="23.9" y="382.1" class="st8" width="0.6" height="0.6"/>
	</g>
	<g>
		<defs>
			<rect id="SVGID_19_" x="-6.1" y="308.2" width="195.1" height="198.4"/>
		</defs>
		<clipPath id="SVGID_20_">
			<use xlink:href="#SVGID_19_"  style="overflow:visible;"/>
		</clipPath>
		<rect x="27" y="388.1" class="st9" width="0.6" height="0.6"/>
	</g>
	<g>
		<defs>
			<rect id="SVGID_21_" x="-6.1" y="308.2" width="195.1" height="198.4"/>
		</defs>
		<clipPath id="SVGID_22_">
			<use xlink:href="#SVGID_21_"  style="overflow:visible;"/>
		</clipPath>
		<rect x="74.1" y="419.4" class="st10" width="0.6" height="0.6"/>
	</g>
	<g>
		<defs>
			<rect id="SVGID_23_" x="-6.1" y="308.2" width="195.1" height="198.4"/>
		</defs>
		<clipPath id="SVGID_24_">
			<use xlink:href="#SVGID_23_"  style="overflow:visible;"/>
		</clipPath>
		<rect x="75.3" y="415" class="st11" width="0.6" height="0.6"/>
	</g>
	<g>
		<defs>
			<rect id="SVGID_25_" x="-6.1" y="308.2" width="195.1" height="198.4"/>
		</defs>
		<clipPath id="SVGID_26_">
			<use xlink:href="#SVGID_25_"  style="overflow:visible;"/>
		</clipPath>
		<rect x="76" y="411.9" class="st12" width="0.6" height="0.6"/>
	</g>
	<g>
		<defs>
			<rect id="SVGID_27_" x="-6.1" y="308.2" width="195.1" height="198.4"/>
		</defs>
		<clipPath id="SVGID_28_">
			<use xlink:href="#SVGID_27_"  style="overflow:visible;"/>
		</clipPath>
		<rect x="79.6" y="399.9" class="st13" width="1.2" height="1.2"/>
	</g>
	<g>
		<defs>
			<rect id="SVGID_29_" x="-6.1" y="308.2" width="195.1" height="198.4"/>
		</defs>
		<clipPath id="SVGID_30_">
			<use xlink:href="#SVGID_29_"  style="overflow:visible;"/>
		</clipPath>
		<polygon class="st14" points="161.8,457.9 176.1,443.6 179.3,446.7 179.3,454.2 174.9,458.6 174.9,469.2 166.8,477.3 161.8,477.3 
					"/>
	</g>
	<g>
		<defs>
			<rect id="SVGID_31_" x="-6.1" y="308.2" width="195.1" height="198.4"/>
		</defs>
		<clipPath id="SVGID_32_">
			<use xlink:href="#SVGID_31_"  style="overflow:visible;"/>
		</clipPath>
		<rect x="183.1" y="375.8" class="st15" width="1.2" height="0.6"/>
	</g>
	<g>
		<defs>
			<rect id="SVGID_33_" x="-6.1" y="308.2" width="195.1" height="198.4"/>
		</defs>
		<clipPath id="SVGID_34_">
			<use xlink:href="#SVGID_33_"  style="overflow:visible;"/>
		</clipPath>
		<rect x="154.3" y="429.9" class="st16" width="0.6" height="0.6"/>
	</g>
	<g>
		<defs>
			<rect id="SVGID_35_" x="-6.1" y="308.2" width="195.1" height="198.4"/>
		</defs>
		<clipPath id="SVGID_36_">
			<use xlink:href="#SVGID_35_"  style="overflow:visible;"/>
		</clipPath>
		<rect x="154.9" y="425.5" class="st17" width="0.6" height="0.6"/>
	</g>
	<g>
		<defs>
			<rect id="SVGID_37_" x="-6.1" y="308.2" width="195.1" height="198.4"/>
		</defs>
		<clipPath id="SVGID_38_">
			<use xlink:href="#SVGID_37_"  style="overflow:visible;"/>
		</clipPath>
		<polygon class="st18" points="38.9,332.7 34.4,332.7 24.4,342.7 24.4,350.8 31.9,350.8 31.9,344.6 35,344.6 35,337.7 42.5,337.7 
			42.5,332.7 		"/>
	</g>
	<g>
		<defs>
			<rect id="SVGID_39_" x="-6.1" y="308.2" width="195.1" height="198.4"/>
		</defs>
		<clipPath id="SVGID_40_">
			<use xlink:href="#SVGID_39_"  style="overflow:visible;"/>
		</clipPath>
		<path class="st19" d="M96.9,388.9L96.9,388.9l-2.6-2.6v-3h2v-6.2l-4.4-4.4 M81.3,398.3v-5.6l7-7l1.3,1.4l2-2v-3.4l4.6-4.6
			 M124.4,487.6L120,492l3.1,3.1l4.4-4.4L124.4,487.6z M145,365.8l1.9,1.9h2.5l8.7,8.7 M33.8,375.2h-3.1h-7.5 M36.9,387l-4.4,4.4
			 M53.2,384.5v10.6 M53.2,384.5l-3.1-3.1h-5 M117.5,349.5h20.6h7.5 M34.4,332.7h8.1v5H35v6.9h-3.1v6.2h-7.5 M59.4,312.7v6.9
			l-7.5,7.5H45l-2.5,2.5v3.1l8.7,8.7l18.7,18.7l16.9-16.9l-3.8-3.8v-15l-4.4-4.4v-3.8l1.9-1.9v-5 M132.5,479.5l-1.2,1.2l-1.2,1.2
			v2.5l2.5,2.5v-3 M136.3,448.3l-5,5 M132.5,471.4v8.1v4.4h2.5 M128.8,453.3h-2.5l-7.5,7.5l10.6,10.6h3.1l4.4-4.4v-13.7h-5.6
			L128.8,453.3 M105.6,477l3.8,3.7v3.7l3.1-3.1h6.9l10-10 M118.8,460.8l-1.2-1.2 M98.8,488.3h6.9v-11.2v-6.9h3.8v-9.4h4.4l1.2,1.3
			l2.5-2.5l-1.3-1.2H115 M92.5,422l-1.9-1.9l-1.9,1.9 M86.9,403.9v3.7h-4.4 M87.5,420.8v-5h6.9v-8.7h-3.1v-3.2 M86.9,403.9v3.7h-4.4
			 M88.8,460.1l2.5-2.5h14.4l1.9,1.9h5l1.2-1.2h1.2l-3.7-3.8v-9.4h4.4v-4.4 M138.8,436.4h2.5v5.6v4.4l3.1,3.1v6.2l-2.5,2.5l-1.9-1.9
			v-4.4l-3.7-3.8v-11.9h2.5 M130.6,420.8v10l5.6,5.6 M141.3,442h3.1l3.1,3.1l6.9-6.9 M103.8,398.3v11.2l-5.6,5.6v5.6h-4.4l-1.2,1.3
			l-2.5,2.5 M90,426.4h10.6v6.2h5.6v-3.1h5.6v11.2h3.7h5.6l6.2,6.2h2.5v-2.5l-3.1-3.1v-6.9l3.7-3.8 M132.5,416.4v2.5l-1.9,1.9
			l-2.5-2.5v-1.9 M128.1,413.9v2.5h4.4v-2.5 M141.3,413.9h-8.7h-4.4V412l4.4-4.4v-7.5 M139.4,397l1.9,1.9v15h1.9l4.4,4.4v2.5l5,5
			 M145.6,397h3.2l3.1,3.1l3.1-3.1h1.2 M116.3,358.9v7.5l-3.7,3.7v8.1l3.1,3.1 M123.1,395.2h1.2l2.5,2.5h3.1l2.5,2.5l0.6,0.6h6.2
			V397h6.2l-8.7-8.7l3.1-3.1v-5l5-5v-9.4v-2.5h5.7 M158.1,414.5l-1.9-1.9V397h7.5l10-10l-9.4,0.3l-3.1-3.5V380 M110,382.7l-2.5,2.5
			h-3.1v3.8h-7.5l-1.9,1.9v8.1l3.7,3.8v-3.1h3.7l1.2-1.3l2.5-2.5l1.9,1.9h5l2.5-2.5h7.5v-2.5l-7.5-7.5v-3.7h-4.4L110,382.7
			 M82.5,403.9h4.4h4.4h7.5v-1.2 M161.3,376.4h-3.1H157v3.7h4.4 M96.9,345.8v6.9l2.5,2.5l-2.5,2.5v6.9l-5,5v3.1h-20l-1.2,1.2
			 M65,379.5v-6.9l-5.6-5.6 M67.5,392.7v-8.8l3.1-3.1v-6.9l-3.1,3.1l-2.5,2.5h-1.2 M63.8,392.7v-13.1h-1.9h-1.2 M60.7,393.9v-14.4
			H57h-3.8v5v10.6 M51.3,341.4h-4.4v26.2h-15l1.9,1.9v5.6h3.7l5.6,5.6l0.6,0.6H45l14.4-14.4H70V360 M41.9,399.5v-5l-3.1-3.1l1.2-1.2
			l3.1-3.1v-6.2 M30.7,375.2v3.7H25 M31.9,367.7l-2.5-2.5h-5 M22.5,370.8h6.9v1.9h-6.2 M117.5,323.9v25.6v5h-1.3v4.4L100,342.7
			l-3.1,3.1l-3.7,3.7l-6.2-6.2 M83.1,324.6l4.4-4.4 M117.5,349.5v-25.6 M40,390.2l-3.1-3.1l-3.7-3.7l-4.4,4.4"/>
	</g>
	<g>
		<defs>
			<rect id="SVGID_41_" x="-6.1" y="308.2" width="195.1" height="198.4"/>
		</defs>
		<clipPath id="SVGID_42_">
			<use xlink:href="#SVGID_41_"  style="overflow:visible;"/>
		</clipPath>
		<path class="st20" d="M139.4,397l1.8-1.8l1.8,1.8 M144.3,347.2l-3.5,3.5h-1.4l-1.2-1.2"/>
	</g>
	<g>
		<defs>
			<rect id="SVGID_43_" x="-6.1" y="308.2" width="195.1" height="198.4"/>
		</defs>
		<clipPath id="SVGID_44_">
			<use xlink:href="#SVGID_43_"  style="overflow:visible;"/>
		</clipPath>
	</g>
	<g>
		<defs>
			<rect id="SVGID_45_" x="-6.1" y="308.2" width="195.1" height="198.4"/>
		</defs>
		<clipPath id="SVGID_46_">
			<use xlink:href="#SVGID_45_"  style="overflow:visible;"/>
		</clipPath>
	</g>
</g>
<g>
	<g>
		<defs>
			<rect id="SVGID_47_" x="-6.1" y="308.2" width="195.1" height="198.4"/>
		</defs>
		<clipPath id="SVGID_48_">
			<use xlink:href="#SVGID_47_"  style="overflow:visible;"/>
		</clipPath>
		<path class="st21" d="M127.1,382.4h0.6v0.6 M125,383.1v-0.6h0.6 M115.6,383.8h2.5v-1.6h2.3v1.6h4.6v1.1h2.1l0.6-1.1h1.4V383
			l0.8-0.6l2.1,1.6h1.1l2.6-3.2v-2l-0.6-0.7h1.3v-0.7h1.4v3.7l1.1,1.6v1.7h1"/>
	</g>
</g>
<polygon class="st22" points="34.2,332.9 34.6,332.5 34.6,332.9 "/>
</svg>
