<?xml version="1.0" encoding="utf-8"?>
<!-- Generator: Adobe Illustrator 19.0.0, SVG Export Plug-In . SVG Version: 6.00 Build 0)  -->
<svg version="1.1" id="Layer_1" xmlns="http://www.w3.org/2000/svg" xmlns:xlink="http://www.w3.org/1999/xlink" x="0px" y="0px"
	 viewBox="0 0 561.3 384.1" style="enable-background:new 0 0 561.3 384.1;" xml:space="preserve">
<style type="text/css">
	.st0{fill:#8BB4D2;}
	.st1{clip-path:url(#SVGID_2_);fill:#009E89;}
	.st2{clip-path:url(#SVGID_2_);fill:#8BB3D2;}
	.st3{clip-path:url(#SVGID_2_);fill:none;stroke:#000000;stroke-width:0.775;}
	.st4{clip-path:url(#SVGID_2_);fill:#B20E10;}
	.st5{clip-path:url(#SVGID_2_);fill:#F8DB00;}
	.st6{clip-path:url(#SVGID_2_);fill:none;stroke:#FFFFFF;stroke-width:0.388;}
	.st7{clip-path:url(#SVGID_2_);fill:none;stroke:#FFFFFF;stroke-width:0.232;}
	.st8{clip-path:url(#SVGID_4_);fill:#8BB3D2;}
	.st9{clip-path:url(#SVGID_4_);fill:#B20E10;}
	.st10{clip-path:url(#SVGID_4_);fill:none;stroke:#FFFFFF;stroke-width:0.323;}
	.st11{clip-path:url(#SVGID_4_);fill:none;stroke:#FFFFFF;stroke-width:0.323;stroke-dasharray:1.551,0.581;}
	.st12{clip-path:url(#SVGID_4_);fill:none;stroke:#8BB3D2;stroke-width:0.323;}
	.st13{clip-path:url(#SVGID_6_);fill:none;stroke:#FFFFFF;stroke-width:0.323;stroke-miterlimit:10;}
</style>
<g>
	<path class="st0" d="M241.9,117.8c0.7,0,4.2-0.1,5-0.1c0.4,0,2.2,0.1,2.7,0.1c0.6,0,3.5-0.1,4.1-0.1c1.5,0,1.5,1,1.4,2.1v5.3
		c0,0.6-0.5,1.5-1.7,1.5c-0.2,0-1.3-0.1-1.5-0.1c-0.2,0-1.2,0.1-1.4,0.1c-0.3,0-1.7-0.1-2.1-0.1c-0.3,0-1.3,0-1.5,1v1.3
		c0,0.3-0.1,1.4-0.1,1.7c0,0.9,0.6,1.4,0.7,1.4c0.3,0.2,0.5,0.2,2.1,0.2c0.2,0,1.4,0.1,1.6,0.1c0.2,0,1.1-0.1,1.3-0.1
		c1.2,0,1.6,0.9,1.6,1.6c0,0.2-0.1,1.3-0.1,1.5v1c0,0.7,0,2.3-0.1,2.9c-0.2,1.3-1.1,1.6-2.1,1.6c-0.5,0-2.5-0.2-3-0.2
		c-1.3,0-2,0.8-2,2.1v2.7c0,0.4,0.1,2.2,0.1,2.6c0,0.3-0.1,1.9-0.1,2.3c0,0.3,0.2,2,0.2,2.4c0,2-1.4,2-1.8,2c-0.5,0-2.6-0.1-3-0.1
		c-0.4,0-2.3,0.1-2.7,0.1c-1.7,0-1.8-1.3-1.8-1.7v-0.6c0.2-1.1,0.2-2.3,0.2-3.5c0-1.1-0.1-6.4-0.1-7.6c0-0.8,0-1.7,0.1-2.5
		c0.1-1.5,0.2-4.4,0.2-4.4c0-0.8-0.2-4.9-0.2-5.8c0-0.7,0.1-4.3,0.1-5.1c0-0.4-0.1-2.5-0.1-2.9c0-0.4,0-1.4,0.7-2.1
		c0.5-0.6,1-0.6,2.5-0.6H241.9z"/>
	<path class="st0" d="M268.1,139.4c0,0.8,0.2,4.6,0.2,5.5c0,0.6-0.2,3.3-0.2,4c0,0.6,0.2,3.7,0.2,4.4c0,0.6-0.4,1.4-1.6,1.4
		c-0.3,0-1.8-0.1-2.1-0.1c-0.5,0-3,0.2-3.5,0.2h-0.3c-0.3,0-1.6,0-1.9-1.1c0-0.2,0-2.9,0-3.4c0-0.5,0.2-2.8,0.2-3.3V143
		c0-0.8-0.2-4.5-0.2-5.4v-6.5c0-0.8,0.2-4.7,0.2-5.6V122c0-0.4-0.2-2.1-0.2-2.5c0-0.9,0.6-1.4,0.8-1.5c0.3-0.2,0.6-0.2,1.5-0.2
		c0.5,0,2.7,0.1,3.2,0.1c0.6,0,1.2,0,1.8-0.1c0.1,0,0.7-0.1,0.9-0.1c1.2,0,1.2,1.7,1.2,1.9c0,0.4-0.2,2.4-0.2,2.9
		c-0.1,1.3-0.1,1.8-0.1,7.2c0,0.6,0.1,3.3,0.1,3.9c0,0.4-0.1,2.7-0.1,3.2V139.4z"/>
	<path class="st0" d="M272.4,144.1c0-0.4-0.1-2.3-0.1-2.8c0-1.3,0.1-2.7,0.1-3.9c0.1-0.7,0.1-1.5,0.1-2.2c0-0.1-0.1-1.8-0.1-2
		c-0.1-0.9-0.1-2.8-0.1-3.3c0-1,0-2.1,0.1-3.1c0.1-1.1,0.1-2,0.1-2.3c0-0.7-0.2-4.4-0.2-5.2c0-0.5,0.3-1.5,1.4-1.5
		c0.4,0,0.7,0.1,1,0.1c0.2,0.1,1.8,0.1,2,0.1c0.5,0,2.7-0.2,3-0.2c0.8,0,1.2,0.5,1.3,0.7c0.2,0.3,1.3,2.5,1.7,3.8
		c0.1,0.2,0.2,0.5,0.3,0.7c0,0.1,0.9,2.2,1,2.3c0.2,0.4,0.4,0.7,0.6,1.1c0.2,0.5,0.4,1,0.6,1.5c0.1,0.3,0.3,0.6,0.5,0.9
		c0.5,1.1,1.1,3.1,1.4,4c0.2,0.6,0.4,0.8,0.5,0.8c0.3,0,0.3-1.6,0.3-2c0-0.4-0.1-0.7-0.1-1.1c-0.1-0.3-0.1-0.8-0.1-0.9
		c0-0.3,0.1-1.9,0.1-2.2c0-0.9-0.3-5.1-0.3-6.1c0-0.5,0-2,0.2-2.4c0.1-0.2,0.7-1,1.9-1c0.3,0,0.6,0.1,0.9,0.1c0.5,0.1,2.5,0.1,3,0.1
		c0.3,0,1.4-0.1,1.6-0.1c0.3,0,0.5,0,0.7,0.1c0.2,0.1,0.7,0.5,0.7,1.3c0,0.2-0.1,0.4-0.1,0.7c-0.1,0.5-0.2,3.2-0.2,3.7
		c0,0.8,0.2,5.1,0.2,6.1c0,1.1-0.1,2.8-0.1,4.5c0,0.8-0.1,1.6-0.1,2.3c0,0.9,0.2,5.3,0.2,6.3c0,0.8-0.3,5.1-0.3,6
		c0,0.9,0.1,1.8,0.1,2.7c0,0.3,0.2,1.4,0.2,1.7c0,0.2,0,0.7-0.7,1.1c-0.3,0.2-0.4,0.2-1.2,0.2c-0.4,0-2.1-0.1-2.6-0.1
		c-0.5,0-3,0.1-3.5,0.1c-0.9,0-1.2-1-1.4-1.7c-0.2-0.6-0.5-1.3-0.7-1.9c-0.4-0.8-0.9-1.7-1.2-2.5c-0.2-0.6-0.4-1.1-0.5-1.6
		c-0.3-0.7-0.6-1.5-0.9-2.2c-0.3-0.5-0.6-1.1-0.8-1.6c-0.3-0.7-0.5-1.5-0.8-2.2c-0.6-1.8-0.8-2.5-1-2.5c-0.1,0-0.2,0.3-0.2,0.5
		c0,0.3,0.1,0.9,0.2,1.4c0.1,0.4,0.3,2.8,0.3,4c0,1.5-0.2,3-0.2,4.5c0,0.6,0.3,3.8,0.3,4.4c0,1.1-0.7,1.5-1.5,1.5
		c-0.5,0-3.2-0.1-3.8-0.1c-0.6,0-1.2,0.1-1.8,0.1c-0.2,0.1-0.4,0.1-0.7,0.1c-1.4,0-1.4-1.3-1.4-1.7c0-0.9,0.4-5.6,0.4-5.9
		c0-0.2-0.1-1.2-0.1-1.4V144.1z"/>
	<path class="st0" d="M300.5,144.1c0-0.4-0.1-2.3-0.1-2.8c0-1.3,0.1-2.7,0.1-3.9c0.1-0.7,0.1-1.5,0.1-2.2c0-0.1-0.1-1.8-0.1-2
		c-0.1-0.9-0.1-2.8-0.1-3.3c0-1,0-2.1,0.1-3.1c0.1-1.1,0.1-2,0.1-2.3c0-0.7-0.2-4.4-0.2-5.2c0-0.5,0.3-1.5,1.4-1.5
		c0.4,0,0.7,0.1,1,0.1c0.2,0.1,1.8,0.1,2,0.1c0.5,0,2.7-0.2,3-0.2c0.8,0,1.2,0.5,1.3,0.7c0.2,0.3,1.3,2.5,1.7,3.8
		c0.1,0.2,0.2,0.5,0.3,0.7c0,0.1,0.9,2.2,1,2.3c0.2,0.4,0.4,0.7,0.6,1.1c0.2,0.5,0.4,1,0.6,1.5c0.1,0.3,0.3,0.6,0.5,0.9
		c0.5,1.1,1.1,3.1,1.4,4c0.2,0.6,0.4,0.8,0.5,0.8c0.3,0,0.3-1.6,0.3-2c0-0.4-0.1-0.7-0.1-1.1c-0.1-0.3-0.1-0.8-0.1-0.9
		c0-0.3,0.1-1.9,0.1-2.2c0-0.9-0.3-5.1-0.3-6.1c0-0.5,0-2,0.2-2.4c0.1-0.2,0.7-1,1.9-1c0.3,0,0.6,0.1,0.9,0.1c0.5,0.1,2.5,0.1,3,0.1
		c0.3,0,1.4-0.1,1.6-0.1c0.3,0,0.5,0,0.7,0.1c0.2,0.1,0.7,0.5,0.7,1.3c0,0.2-0.1,0.4-0.1,0.7c-0.1,0.5-0.2,3.2-0.2,3.7
		c0,0.8,0.2,5.1,0.2,6.1c0,1.1-0.1,2.8-0.1,4.5c0,0.8-0.1,1.6-0.1,2.3c0,0.9,0.2,5.3,0.2,6.3c0,0.8-0.3,5.1-0.3,6
		c0,0.9,0.1,1.8,0.1,2.7c0,0.3,0.2,1.4,0.2,1.7c0,0.2,0,0.7-0.7,1.1c-0.3,0.2-0.4,0.2-1.2,0.2c-0.4,0-2.1-0.1-2.6-0.1
		c-0.5,0-3,0.1-3.5,0.1c-0.9,0-1.2-1-1.4-1.7c-0.2-0.6-0.5-1.3-0.7-1.9c-0.4-0.8-0.9-1.7-1.2-2.5c-0.2-0.6-0.4-1.1-0.5-1.6
		c-0.3-0.7-0.6-1.5-0.9-2.2c-0.3-0.5-0.6-1.1-0.8-1.6c-0.3-0.7-0.5-1.5-0.8-2.2c-0.6-1.8-0.8-2.5-1-2.5c-0.1,0-0.2,0.3-0.2,0.5
		c0,0.3,0.1,0.9,0.2,1.4c0.1,0.4,0.3,2.8,0.3,4c0,1.5-0.2,3-0.2,4.5c0,0.6,0.3,3.8,0.3,4.4c0,1.1-0.7,1.5-1.5,1.5
		c-0.5,0-3.2-0.1-3.8-0.1c-0.6,0-1.2,0.1-1.8,0.1c-0.2,0.1-0.4,0.1-0.7,0.1c-1.4,0-1.4-1.3-1.4-1.7c0-0.9,0.4-5.6,0.4-5.9
		c0-0.2-0.1-1.2-0.1-1.4V144.1z"/>
	<path class="st0" d="M266.1,162.4c0.5,0,2.5-0.1,3-0.1c1.7,0,2.8,1.1,2.8,2.9c0,0.8-0.3,4.3-0.3,5.2c0,0.4,0.1,2.6,0.1,3.2
		c0,1.3-0.2,3.5-3.3,3.8c-0.3,0.1-1.3,0-1.6,0c-0.4,0-2.4,0.2-2.9,0.2c-0.6,0-3.2-0.3-3.9-0.3c-3.5,0-4.5,0.8-5.1,1.6
		c-0.4,0.6-0.4,0.9-0.4,3.5c0,0.9,0,4.6,3.2,4.6c0.4,0,2.3-0.2,2.8-0.2c0.6,0,3.2,0.2,3.8,0.2c0.4,0,2.5-0.1,3-0.1
		c2.8,0,3.6,1.1,3.6,3.8c0,0.6-0.2,3.3-0.2,4c0,0.6,0.2,3.3,0.2,4c0,0.9-0.1,1.3-0.3,1.7c-0.9,2.2-2.3,2.2-3.7,2.2
		c-1,0-6.4-0.4-7.5-0.4c-1.5,0-3.4,0.1-4.4,1.8c-0.5,0.9-0.5,2.3-0.5,4.9c0,1.9,0,3.6,2.3,4.3c1,0.3,2.5,0.3,3.7,0.3
		c0.9,0.1,1.9,0.3,2.7,0.4c0.6,0.1,1.3,0.1,1.9,0.1c0.7,0,1.5,0,2.1-0.1c0.6-0.1,1.2-0.2,1.9-0.2c1.2,0,3.4,0.8,3.4,3.4
		c0,0.6,0,1.1-0.1,1.7c-0.1,1-0.1,2.1-0.1,2.7c0,0.6,0.1,3.4,0.1,4.1c0,3.1-2.2,3.8-3.3,3.8c-0.5,0-2.8-0.2-3.2-0.2
		c-0.5,0-2.6,0.1-3.2,0.1c-1.9,0-3.9-0.2-5.8-0.2c-0.5,0-2.8,0.1-3.3,0.1c-0.5,0-2.7-0.1-3.2-0.1c-0.8,0-4.9,0.1-5.7,0.1
		c-0.6,0-3,0.1-3.5,0.1c-2.2,0-3.8-1.7-3.8-3.7c0-0.4,0.1-0.8,0.1-1.1c0.2-2,0.2-4.4,0.2-6c0-0.9-0.1-5-0.1-5.9
		c0-0.7,0.3-3.8,0.3-4.4c0-0.7-0.1-3.7-0.1-4.3c0-1.1,0.1-6.8,0.1-8.1c0-1.2-0.2-7.7-0.2-9.1c0-3.3,0.2-6.7,0.2-10
		c0-1-0.1-6.1-0.1-7.2c0-4.6,0-7.3,4.7-7.3c0.5,0,1.6,0.1,2.8,0.1c1.1,0.1,2.3,0.2,2.7,0.2h4.8c1.1,0,6.6,0.2,7.8,0.2
		c0.5,0,3-0.2,3.5-0.2H266.1z"/>
	<path class="st0" d="M280.8,210.1c0-0.8-0.1-4.3-0.1-5c0-2.3,0.1-4.8,0.2-7c0.1-1.3,0.2-2.6,0.2-4c0-0.2-0.2-3.2-0.2-3.7
		c-0.1-1.7-0.1-5.1-0.1-6c0-1.9,0-3.8,0.1-5.7c0.1-2,0.1-3.6,0.1-4.3c0-1.3-0.3-7.9-0.3-9.5c0-0.9,0.5-2.6,2.6-2.6
		c0.6,0,1.2,0.2,1.9,0.2c0.4,0.1,3.2,0.1,3.6,0.1c0.8,0,4.9-0.3,5.4-0.3c1.5,0,2.1,0.9,2.3,1.3c0.4,0.6,2.3,4.4,3.2,6.9
		c0.2,0.4,0.3,0.9,0.5,1.2c0,0.2,1.7,4,1.8,4.2c0.4,0.7,0.7,1.3,1,2c0.4,0.9,0.6,1.8,1,2.7c0.2,0.6,0.6,1.1,0.8,1.7
		c0.8,2,1.9,5.7,2.5,7.3c0.3,1,0.6,1.4,0.8,1.4c0.5,0,0.5-2.8,0.5-3.7c0-0.7-0.1-1.3-0.1-2c-0.1-0.6-0.2-1.5-0.2-1.7
		c0-0.6,0.2-3.4,0.2-4.1c0-1.6-0.5-9.3-0.5-11.1c0-0.9,0-3.6,0.4-4.3c0.2-0.4,1.2-1.9,3.4-1.9c0.5,0,1,0.1,1.6,0.1
		c0.8,0.1,4.4,0.1,5.5,0.1c0.5,0,2.5-0.1,3-0.1c0.6,0,0.9,0,1.2,0.2c0.4,0.2,1.3,0.9,1.3,2.4c0,0.4-0.1,0.8-0.1,1.2
		c-0.2,0.9-0.4,5.9-0.4,6.7c0,1.5,0.3,9.3,0.3,11.1c0,2-0.1,5.1-0.2,8.2c0,1.4-0.1,2.8-0.1,4.3c0,1.6,0.4,9.6,0.4,11.4
		c0,1.5-0.5,9.2-0.5,10.9c0,1.6,0.1,3.2,0.2,4.8c0,0.5,0.3,2.6,0.3,3c0,0.3,0,1.3-1.2,2c-0.5,0.3-0.6,0.3-2.2,0.3
		c-0.7,0-3.9-0.2-4.6-0.2c-0.9,0-5.5,0.2-6.4,0.2c-1.6,0-2.2-1.9-2.6-3.1c-0.3-1.1-0.8-2.3-1.3-3.4c-0.7-1.5-1.6-3.1-2.1-4.5
		c-0.4-1-0.6-2-0.9-2.9c-0.5-1.3-1-2.7-1.7-4.1c-0.5-0.9-1-2-1.4-2.9c-0.6-1.3-0.9-2.6-1.4-4c-1.1-3.3-1.5-4.4-1.9-4.4
		c-0.2,0-0.4,0.5-0.4,0.9c0,0.6,0.2,1.7,0.3,2.6c0.1,0.7,0.5,5.1,0.5,7.3c0,2.7-0.3,5.5-0.3,8.2c0,1.1,0.5,6.8,0.5,8
		c0,2-1.3,2.6-2.8,2.6c-0.9,0-5.7-0.2-6.9-0.2c-1.1,0-2.2,0.1-3.3,0.2c-0.4,0.1-0.7,0.1-1.2,0.1c-2.5,0-2.5-2.4-2.5-3
		c0-1.7,0.6-10.2,0.6-10.7c0-0.4-0.1-2.2-0.2-2.6V210.1z"/>
	<path class="st0" d="M242.4,238.3c0.9,0,5-0.1,6-0.1c0.4,0,2.7,0.1,3.2,0.1c0.7,0,4.2-0.1,4.9-0.1c1.8,0,1.8,1.2,1.7,2.5v6.3
		c0,0.7-0.6,1.7-2,1.7c-0.2,0-1.5-0.1-1.8-0.1c-0.2,0-1.4,0.1-1.7,0.1c-0.3,0-2.1-0.1-2.5-0.1c-0.3,0-1.5,0-1.8,1.2v1.6
		c0,0.3-0.1,1.7-0.1,2c0,1.1,0.7,1.6,0.9,1.7c0.4,0.2,0.5,0.2,2.6,0.2c0.2,0,1.6,0.1,2,0.1c0.2,0,1.3-0.1,1.6-0.1c1.4,0,2,1.1,2,1.9
		c0,0.2-0.1,1.5-0.1,1.8v1.2c0,0.8,0,2.7-0.1,3.5c-0.2,1.6-1.3,1.9-2.5,1.9c-0.6,0-3-0.2-3.5-0.2c-1.5,0-2.4,0.9-2.4,2.5v3.2
		c0,0.4,0.1,2.6,0.1,3.1c0,0.4-0.1,2.3-0.1,2.7c0,0.4,0.2,2.4,0.2,2.9c0,2.4-1.6,2.4-2.2,2.4c-0.5,0-3-0.1-3.6-0.1
		c-0.5,0-2.7,0.1-3.2,0.1c-2.1,0-2.2-1.6-2.2-2.1v-0.7c0.2-1.4,0.2-2.8,0.2-4.2c0-1.3-0.1-7.6-0.1-9c0-1,0-2,0.1-2.9
		c0.1-1.7,0.2-5.2,0.2-5.3c0-1-0.2-5.8-0.2-7c0-0.9,0.1-5.2,0.1-6.1c0-0.5-0.1-2.9-0.1-3.5c0-0.4,0-1.7,0.8-2.6
		c0.6-0.7,1.2-0.7,3-0.7H242.4z"/>
	<path class="st0" d="M279.9,238.3c0.3,0,1.6-0.1,2-0.1c1.1,0,1.8,0.7,1.8,1.9c0,0.5-0.2,2.9-0.2,3.4c0,0.2,0.1,1.7,0.1,2.1
		c0,0.9-0.1,2.3-2.2,2.5c-0.2,0.1-0.9,0-1,0c-0.2,0-1.6,0.1-1.9,0.1c-0.4,0-2.1-0.2-2.6-0.2c-2.3,0-3,0.5-3.4,1.1
		c-0.2,0.4-0.2,0.6-0.2,2.3c0,0.6,0,3,2.1,3c0.2,0,1.5-0.1,1.8-0.1c0.4,0,2.1,0.1,2.5,0.1c0.2,0,1.6-0.1,2-0.1
		c1.8,0,2.4,0.7,2.4,2.5c0,0.4-0.1,2.2-0.1,2.6c0,0.4,0.1,2.2,0.1,2.6c0,0.6-0.1,0.9-0.2,1.1c-0.6,1.4-1.5,1.4-2.4,1.4
		c-0.7,0-4.2-0.2-4.9-0.2c-1,0-2.3,0.1-2.9,1.2c-0.3,0.6-0.3,1.5-0.3,3.2c0,1.2,0,2.4,1.5,2.8c0.7,0.2,1.6,0.2,2.4,0.2
		c0.6,0.1,1.2,0.2,1.8,0.2c0.4,0.1,0.9,0.1,1.3,0.1c0.5,0,1,0,1.4-0.1c0.4-0.1,0.8-0.1,1.2-0.1c0.8,0,2.3,0.5,2.3,2.2
		c0,0.4,0,0.7-0.1,1.1c-0.1,0.7-0.1,1.4-0.1,1.8c0,0.4,0.1,2.2,0.1,2.7c0,2.1-1.5,2.5-2.2,2.5c-0.3,0-1.8-0.1-2.1-0.1
		c-0.3,0-1.7,0.1-2.1,0.1c-1.3,0-2.6-0.1-3.8-0.1c-0.3,0-1.8,0.1-2.2,0.1c-0.3,0-1.8-0.1-2.1-0.1c-0.5,0-3.2,0.1-3.8,0.1
		c-0.4,0-2,0.1-2.3,0.1c-1.5,0-2.5-1.1-2.5-2.4c0-0.2,0.1-0.5,0.1-0.7c0.1-1.3,0.1-2.9,0.1-3.9c0-0.6-0.1-3.3-0.1-3.9
		c0-0.4,0.2-2.5,0.2-2.9c0-0.4-0.1-2.4-0.1-2.9c0-0.7,0.1-4.5,0.1-5.4c0-0.8-0.1-5-0.1-6c0-2.2,0.1-4.4,0.1-6.6c0-0.7-0.1-4-0.1-4.7
		c0-3,0-4.8,3.1-4.8c0.3,0,1,0.1,1.8,0.1c0.7,0.1,1.5,0.1,1.8,0.1h3.2c0.7,0,4.3,0.1,5.1,0.1c0.3,0,2-0.1,2.3-0.1H279.9z"/>
	<path class="st0" d="M299.3,264c0,0.9,0.2,5.5,0.2,6.5c0,0.7-0.2,4-0.2,4.7c0,0.7,0.2,4.4,0.2,5.2c0,0.7-0.4,1.6-1.9,1.6
		c-0.4,0-2.1-0.1-2.6-0.1c-0.6,0-3.5,0.2-4.1,0.2h-0.4c-0.4,0-2,0-2.3-1.4c-0.1-0.2-0.1-3.5-0.1-4c0-0.6,0.2-3.3,0.2-3.9v-4.5
		c0-0.9-0.2-5.4-0.2-6.4v-7.8c0-0.9,0.2-5.6,0.2-6.7v-4.2c0-0.4-0.2-2.6-0.2-3c0-1.1,0.7-1.6,1-1.8c0.4-0.2,0.7-0.2,1.8-0.2
		c0.5,0,3.2,0.1,3.8,0.1c0.7,0,1.5,0,2.2-0.1c0.1,0,0.9-0.1,1-0.1c1.5,0,1.5,2,1.5,2.3c0,0.5-0.2,2.9-0.2,3.4
		c-0.1,1.5-0.1,2.2-0.1,8.6c0,0.7,0.1,3.9,0.1,4.7c0,0.5-0.1,3.2-0.1,3.8V264z"/>
	<path class="st0" d="M306.5,238.1c0.4,0,2.7,0.2,3.2,0.2c0.6,0,1.2-0.1,1.7-0.1c0.6-0.1,1.2-0.1,1.7-0.1c0.9,0,2.4,0,2.4,1.8
		c0,0.4-0.1,0.7-0.1,1.1c-0.2,1.2-0.3,4.1-0.3,5.7c0,0.6,0.1,3.7,0.1,4.4c0,0.5-0.1,3.1-0.1,3.6c0,0.5,0.2,2.9,0.2,3.4
		c0,0.2-0.1,0.6-0.1,1.6c-0.1,1-0.1,2.3-0.1,3.4c0,0.4,0.1,2.6,0.1,3c0,0.2-0.1,1.4-0.1,1.7c0,1.6,0.6,3.3,2.7,3.5
		c0.4,0.1,2.1,0.1,2.7,0.1c0.3,0,1.8-0.1,2.1-0.1c2.4,0,2.4,1.4,2.4,5.7c0,0.5-0.1,2.9-0.1,3.4c0,1-0.5,1.5-1,1.7
		c-0.2,0.1-0.5,0.2-1.1,0.2c-0.4,0-2.1-0.1-2.5-0.1c-0.4-0.1-2.4,0-2.8,0c-1.1,0.1-6.5,0-7.7,0c-0.5,0-3,0.1-3.5,0.1
		c-1.9,0-2.4-1.2-2.4-2.1c0-0.3,0.1-1.9,0.1-2.2c0-1.6,0.1-3.2,0.1-4.7c0-0.2-0.2-5.8-0.2-6.8c0-0.6,0.2-3.2,0.2-3.9
		c0.1-0.5,0.1-0.9,0.1-1.4c0-0.6-0.1-3.4-0.1-4c0-0.5,0.1-2.7,0.1-3.2c0-1.1-0.1-2.3-0.1-3.4c0-0.7,0.1-3.9,0.1-4.7
		c0-1.6-0.1-3.2-0.1-4.9C304.4,239.9,304.4,238.1,306.5,238.1"/>
	<rect x="237.4" y="289.7" class="st0" width="87.9" height="9.2"/>
	<rect x="237.4" y="100.8" class="st0" width="87.2" height="9.2"/>
</g>
<g>
	<defs>
		<rect id="SVGID_1_" x="11.8" y="99.3" width="199.6" height="198.3"/>
	</defs>
	<clipPath id="SVGID_2_">
		<use xlink:href="#SVGID_1_"  style="overflow:visible;"/>
	</clipPath>
	<line class="st1" x1="189.5" y1="178.3" x2="191.9" y2="174"/>
	<polygon class="st2" points="157,129.5 148.9,121.4 150.8,119.5 153.9,122.7 155.8,120.8 148.9,113.9 143.9,113.9 142.6,115.2 
		133.3,115.2 133.3,140.8 144.5,140.8 153.9,140.8 158.3,136.4 157,135.1 	"/>
	<polygon class="st2" points="57.7,190.7 57.1,191.4 48.3,182.6 52.7,178.3 55.8,181.4 54.6,182.6 57.7,185.8 	"/>
	
		<rect x="136.4" y="280.4" transform="matrix(0.7073 -0.7069 0.7069 0.7073 -158.926 181.3555)" class="st3" width="6.2" height="4.4"/>
	<polygon class="st2" points="145.1,262.6 135.2,272.6 128.3,272.6 125.2,275.7 125.2,272 121.4,268.2 121.4,279.5 114.5,279.5 
		114.5,285.1 118.3,288.8 118.3,296.3 135.8,296.3 150.8,281.3 150.8,275.1 148.3,275.1 148.3,278.2 145.8,275.7 145.8,273.2 
		148.3,270.7 148.3,262.6 	"/>
	<rect x="39.4" y="171.6" class="st4" width="0.6" height="0.6"/>
	<rect x="168.9" y="220.7" class="st4" width="0.6" height="0.6"/>
	<rect x="169.5" y="216.4" class="st4" width="0.6" height="0.6"/>
	<rect x="89.8" y="206.6" class="st4" width="0.6" height="0.6"/>
	<rect x="91" y="202.2" class="st4" width="0.6" height="0.6"/>
	<rect x="88.8" y="200.6" class="st4" width="0.6" height="0.6"/>
	<rect x="95.4" y="191.2" class="st4" width="1.2" height="1.2"/>
	<rect x="198.9" y="167" class="st4" width="1.2" height="0.6"/>
	<path class="st4" d="M40.2,156.4V142V156.4z"/>
	<polygon class="st4" points="133.3,250.7 132,249.5 130.8,249.5 129.5,249.5 128.3,250.7 123.3,250.7 121.4,248.8 107,248.8 
		104.5,251.3 104.5,252.6 107.7,255.7 107.7,260.1 110.8,263.2 110.8,275.7 114.5,279.5 121.4,279.5 121.4,268.2 121.4,261.3 
		125.2,261.3 125.2,252 129.5,252 130.8,253.2 	"/>
	<polygon class="st4" points="168.3,217 168.3,227.6 170.1,229.5 163.3,236.4 160.1,233.2 157,233.2 157,227.6 152,227.6 146.4,222 
		146.4,212 143.9,209.5 143.9,207.6 143.9,205.1 148.3,205.1 157,205.1 158.9,205.1 163.3,209.5 163.3,212 	"/>
	<polygon class="st4" points="97,189.5 98.3,189.5 98.3,195.1 114.5,195.1 114.5,193.9 110.8,190.1 110.8,182 112.9,179.9 
		110.1,176.4 110.1,174.5 112,174.5 112,168.3 107.4,172.9 107.4,176.2 105.4,178.2 104.1,176.9 97,183.9 	"/>
	<polygon class="st4" points="74.6,187 77.7,183.9 79.6,183.9 79.6,170.8 74.6,170.8 73.5,176.8 	"/>
	<polyline class="st4" points="191.9,174 191.9,170.2 195.1,170.1 195.1,174.5 192,177.6 192,186.4 173.9,204.5 173.9,205.7 
		172,203.9 172,188.2 179.5,188.2 189.5,178.3 	"/>
	<polygon class="st4" points="177,171.4 177,175.1 180.1,178.3 189.5,178.3 179.5,188.2 172,188.2 170.8,188.2 167.6,191.4 
		164.5,188.2 161.3,188.2 152.6,179.5 155.7,176.4 155.7,171.4 160.7,166.4 160.7,157 162.6,158.9 165.1,158.9 173.9,167.6 
		173.8,167.6 172.6,167.6 172.6,171.4 177,171.4 	"/>
	<polygon class="st4" points="177,252 191.4,237.6 194.5,240.7 194.5,248.2 190.1,252.6 190.1,263.2 182,271.3 177,271.3 	"/>
	
		<rect x="136.4" y="280.4" transform="matrix(0.7073 -0.7069 0.7069 0.7073 -158.926 181.3555)" class="st4" width="6.2" height="4.4"/>
	<polygon class="st4" points="99.5,100.8 96.4,100.8 87.7,100.8 79.6,100.8 76.4,103.9 75.2,103.9 71.4,103.9 68.3,103.9 
		67.1,102.7 55.8,113.9 55.8,118.3 50.2,123.9 40.2,133.9 40.2,142 40.2,156.4 36.4,160.1 38.3,162 38.9,162.6 38.9,163.9 
		38.9,166.4 38.9,168.3 40.8,170.1 44.6,173.9 44.6,178.9 48.3,182.6 52.7,178.3 55.8,181.4 54.6,182.6 57.7,185.7 57.7,190.7 
		62.7,185.7 68.3,185.7 68.9,186.4 72.1,189.5 74.6,187 73.5,176.8 74.6,170.8 76.4,170.8 79.6,170.8 79.6,183.9 83.3,183.9 
		85.2,183.9 90.8,189.5 97,189.5 97,183.9 104.1,176.9 105.4,178.2 107.4,176.2 107.4,172.9 112,168.3 112,174.5 110.1,174.5 
		110.1,176.4 112.9,179.9 110.8,182 110.8,190.1 114.5,193.9 114.5,195.1 107,195.1 104.5,195.1 102.7,195.1 100.2,195.1 
		98.3,195.1 98.3,198.9 98.3,200.1 97,201.4 97,205.7 103.3,212 104.5,213.2 105.8,214.5 105.8,215.7 105.8,217.6 105.8,228.9 
		108.9,232 108.9,235.7 104.5,240.1 104.5,251.3 107,248.8 121.4,248.8 123.3,250.7 128.3,250.7 129.5,249.5 130.8,249.5 132,249.5 
		133.3,250.7 130.8,253.2 129.5,252 125.2,252 125.2,261.3 121.4,261.3 121.4,268.2 125.2,272 125.2,275.7 128.3,272.6 135.2,272.6 
		145.1,262.6 148.3,262.6 148.3,270.7 145.8,273.2 145.8,275.7 148.3,278.2 148.3,275.1 150.8,275.1 150.8,273.8 157,267.6 
		157,255.1 162.6,249.5 167,249.5 170.8,245.7 170.8,230.1 170.1,229.5 163.3,236.4 160.1,233.2 157,233.2 157,227.6 152,227.6 
		146.4,222 146.4,212 143.9,209.5 143.9,207.6 143.9,205.1 148.3,205.1 157,205.1 158.9,205.1 163.3,209.5 163.3,212 168.3,217 
		168.3,212 172,208.2 173.9,208.2 173.9,205.7 172,203.9 172,188.2 170.8,188.2 167.6,191.4 164.5,188.2 162.6,188.2 161.3,188.2 
		152.6,179.5 155.7,176.4 155.7,171.4 160.7,166.4 160.7,157 162.6,158.9 165.1,158.9 173.9,167.6 172.6,167.6 172.6,171.4 
		177,171.4 175.8,170.1 179.5,170.1 177,167.6 166.4,157 166.4,154.5 166.4,153.3 161.4,148.3 161.4,140.8 161.4,139.5 158.3,136.4 
		153.9,140.8 144.5,140.8 133.3,140.8 133.3,115.2 131.4,115.2 127,110.8 121.4,110.8 121.4,118.3 120.2,118.3 117.7,115.8 
		115.2,115.8 110.8,111.4 108.3,111.4 103.3,111.4 100.8,109.5 102,108.3 102,100.8 	"/>
	<polygon class="st4" points="182,170.1 178.9,173.3 177,171.4 177,175.1 180.1,178.3 189.5,178.3 191.9,174 191.9,170.2 	"/>
	<rect x="40.2" y="110.8" class="st5" width="0.6" height="0.6"/>
	<rect x="35.4" y="124.3" class="st5" width="0.6" height="0.6"/>
	<rect x="37.9" y="125.4" class="st5" width="0.6" height="0.6"/>
	<rect x="40.3" y="125.6" class="st5" width="0.6" height="0.6"/>
	<rect x="44.1" y="125.6" class="st5" width="0.6" height="0.6"/>
	<rect x="34.7" y="126.6" class="st5" width="0.6" height="0.6"/>
	<path class="st6" d="M54.8,119.3l0.9,0.7l0.8-1.3l-0.7-0.4 M53.8,120.4l0.9,1.4l3.6-1 M189.5,178.3l2.4-4.3v-3.8 M74.6,170.8l-1,6
		l1,10.2 M172,188.2v15.6l1.9,1.9 M177,167.6h-3.1h-1.2v3.7h4.4h0v3.8l3.1,3.1h9.4l-10,10H172h-1.2l-3.1,3.1l-3.1-3.1h-3.2
		 M38.3,162h6.9v1.9h-6.2 M38.9,166.4h7.5v3.7h-5.6 M114.5,279.5h6.9v-11.2l3.7,3.7v3.7l3.1-3.1h6.9l10-10h3.1v8.1v4.4h2.5
		 M140.1,278.8l-4.4,4.4l3.1,3.1l4.4-4.4L140.1,278.8z M140.1,278.8l-4.4,4.4l3.1,3.1l4.4-4.4L140.1,278.8z M133.3,250.7l-2.5,2.5
		l-1.2-1.2h-4.4v9.4h-3.7v6.9 M148.3,270.7l-2.5,2.5v2.5l2.5,2.5v-3.1 M134.5,252l10.6,10.6 M147,244.5h5.6v13.7l-4.4,4.4
		 M157,233.2v4.4l3.1,3.1v6.2l-2.5,2.5l-1.9-1.9v-4.4l-3.7-3.7 M152,227.6v11.9l-5,5h-5l-7.5,7.5l-1.2-1.2l-1.2-1.2h-1.2 M131.4,232
		v4.4H127v9.4l3.7,3.7h-1.2l-1.2,1.2h-5l-1.9-1.9H107l-2.5,2.5 M170.1,229.5l-6.9,6.9l-3.1-3.1H157v-5.6h-5l-5.6-5.6 M155.1,188.2
		l1.9,1.9v15 M143.9,205.1h4.4h8.7h1.9l4.4,4.4v2.5l5,5 M146.4,212l1.9-1.9v-2.5v-2.5 M102.7,195.1v3.7h-4.4 M108.3,213.2l-1.9-1.9
		l-1.9,1.9 M105.8,217.6h10.6v6.2h5.6v-3.1h5.6V232h3.8h5.6l6.2,6.2h2.5v-2.5l-3.1-3.1v-6.9l3.7-3.7v-10l-2.5-2.5v-1.9v-2.5v-1.9
		l4.4-4.4v-7.5 M138.9,186.4h-7.5l-2.5,2.5h-5L122,187l-2.5,2.5v11.2l-5.6,5.6v5.6h-4.4l-1.2,1.3l-2.5,2.5 M98.3,189.5v-4.2l7.1-7.1
		 M107.4,175.1l3.7-3.7v-2.2 M98.3,195.1h4.4h4.4h7.5v-1.2l-3.7-3.8V182l2.1-2.1l-2.9-3.5v-1.9h2v-6.2l-4.4-4.4 M63.7,106.1l2.8,2.3
		l6.2-1.8l2.3-0.5 M52.7,178.3l-4.4,4.4 M44.6,178.9l4.4-4.4l3.7,3.8l3.1,3.1l-1.2,1.2l3.1,3.1v5 M103.3,111.4l-4.4,4.4 M75.2,103.9
		v6.9l-7.5,7.5h-6.9l-2.5,2.5v3.1h-8.1 M96.4,100.8v5l-1.9,1.9v3.7l4.4,4.4v15l3.7,3.7l-16.9,16.9l-18.7-18.7l-8.7-8.7v5h-1.9h-5.6
		v6.9h-3.1v6.2h-7.5 M97,189.5v-5.6l7-7l1.3,1.4l2-2l0-3.4l4.6-4.6 M102.7,134.5l6.2,6.2l3.7-3.7v6.9l2.5,2.5l-2.5,2.5v6.9l-5,5v3.1
		h-20l-1.2,1.2v6.9l-3.1,3.1v8.7 M76.4,170.8h3.1v13.1 M76.4,185.1v-14.4h-1.9h-5.6v15.6 M160.7,157l1.9,1.9h2.5l8.7,8.7 M112.7,137
		v6.9l2.5,2.5l-2.5,2.5v6.9 M160.7,157v-2.5h5.7 M112.7,137l3.1-3.1l16.2,16.2v-4.4h1.2v-5v-25.6 M158.3,136.4l-0.3,0.3 M158,136.7
		l-4.1,4.1h-9.4h-11.2 M132,150.1v7.5l-3.7,3.7v8.1l3.1,3.1v3.7l7.5,7.5v2.5h1.2l2.5,2.5h3.1l2.5,2.5l0.6,0.6h6.2v-3.7h6.2l-8.7-8.7
		l3.1-3.1v-5l5-5V157v-2.5h5.7"/>
	<path class="st7" d="M177,252l14.4-14.4l3.1,3.1v7.5l-4.4,4.4v10.6l-8.1,8.1h-5V252z M169.5,216.4h0.6v0.6h-0.6V216.4z
		 M168.9,220.7h0.6v0.6h-0.6V220.7z M200.1,167h-1.2v0.6h1.2V167z M34.7,126.6h0.6v0.6h-0.6V126.6z M44.1,125.6h0.6v0.6h-0.6V125.6z
		 M40.3,125.6H41v0.6h-0.6V125.6z M37.9,125.4h0.6v0.6h-0.6V125.4z M35.4,124.3H36v0.6h-0.6V124.3z M40.2,110.8h0.6v0.6h-0.6V110.8z
		 M95.4,191.2h1.2v1.2h-1.2V191.2z M88.8,200.6h0.6v0.6h-0.6V200.6z M91,202.2h0.6v0.6H91V202.2z M89.8,206.6h0.6v0.6h-0.6V206.6z
		 M39.4,171.6H40v0.6h-0.6V171.6z M158.3,136.4l-1.2-1.2v-5.6l-8.1-8.1l1.9-1.9l3.1,3.1l1.9-1.9l-6.9-6.9h-5l-1.2,1.2h-9.4
		 M133.3,115.2h-1.9l-4.4-4.4h-5.6v7.5h-1.2l-2.5-2.5h-2.5l-4.4-4.4h-7.5l-2.5-1.9l1.2-1.2v-7.5h-5.6H79.6l-3.1,3.1h-1.2h-6.9
		l-1.2-1.2l-11.2,11.2v4.4l-5.6,5.6l-10,10v8.1v14.4l-3.7,3.7l1.9,1.9l0.6,0.6v1.2v2.5v1.9l1.9,1.9l3.7,3.7v5l3.7,3.7l8.7,8.7
		l0.6-0.6l5-5h5.6l0.6,0.6l3.1,3.1l2.5-2.5l1.9-1.9l1.2-1.3h1.9h3.7h1.9l5.6,5.6h5.6h1.9v5.6v3.7v1.2l-1.2,1.2v4.4l6.2,6.2l1.2,1.3
		l1.2,1.2v1.2v1.9v11.2l3.1,3.1v3.8l-4.4,4.4v11.2v1.2l3.1,3.1v4.4l3.1,3.1v12.5l3.7,3.7v5.6l3.7,3.7v7.5h17.5l15-15v-6.2v-1.2
		l6.2-6.2v-12.5l5.6-5.6h4.4l3.8-3.7v-15.6l-0.6-0.6l-1.9-1.9V217v-5l3.7-3.7h1.9v-2.5v-1.2l18.1-18.1v-8.7l3.1-3.1v-4.4H182
		l-3.1,3.1l-1.9-1.9l-1.2-1.2h3.7l-2.5-2.5L166.4,157v-2.5v-1.2l-5-5v-7.5v-1.2l-3.1-3.1"/>
</g>
<g>
	<defs>
		<rect id="SVGID_3_" x="351.9" y="99.3" width="195.1" height="198.4"/>
	</defs>
	<clipPath id="SVGID_4_">
		<use xlink:href="#SVGID_3_"  style="overflow:visible;"/>
	</clipPath>
	<polygon class="st8" points="438.6,100.7 421.8,100.7 418.7,103.8 417.4,103.8 410.5,103.8 409.3,102.5 398,113.8 398,118.2 
		392.4,123.8 400.5,123.8 400.5,128.8 393,128.8 393,135.6 389.9,135.6 389.9,141.9 382.4,141.9 382.4,156.3 378.7,160 380.5,161.9 
		381.2,162.5 381.2,163.8 381.2,166.3 381.2,168.1 383,170 386.8,173.8 386.8,178.8 390.5,182.5 399.3,191.3 399.9,190.6 
		404.9,185.6 410.5,185.6 411.2,186.3 414.3,189.4 418.7,185 419.9,183.8 421.8,183.8 425.5,183.8 427.4,183.8 433,189.4 
		438.6,189.4 440.5,189.4 440.5,195 440.5,198.8 440.5,200 439.3,201.3 439.3,205.6 445.5,211.9 446.8,213.1 448,214.4 448,215.6 
		448,217.5 448,228.8 451.1,231.9 451.1,235.6 446.8,240 446.8,251.2 446.8,252.5 449.9,255.6 449.9,260 453,263.1 453,275.6 
		456.8,279.4 456.8,285 460.5,288.7 460.5,296.2 478,296.2 493,281.2 493,275 493,273.7 499.3,267.5 499.3,255 504.9,249.4 
		509.3,249.4 513,245.6 513,230 512.4,229.4 510.5,227.5 510.5,216.9 510.5,211.9 514.3,208.1 516.1,208.1 516.1,205.6 516.1,204.4 
		534.2,186.3 534.2,177.5 537.4,174.4 537.4,170 524.3,170 521.1,173.1 519.3,171.3 518,170 521.8,170 519.3,167.5 508.6,156.9 
		508.6,154.4 508.6,153.1 503.6,148.1 503.6,140.6 503.6,139.4 500.5,136.3 499.3,135 499.3,129.4 491.1,121.3 493,119.4 
		496.1,122.5 498,120.7 491.1,113.8 486.1,113.8 484.9,115 475.5,115 473.6,115 469.3,110.7 463.6,110.7 463.6,118.2 462.4,118.2 
		459.9,115.7 457.4,115.7 453,111.3 445.5,111.3 443,109.4 444.3,108.2 444.3,100.7 	"/>
	<rect x="382.9" y="108.8" class="st8" width="0.6" height="0.6"/>
	<rect x="379.9" y="121.9" class="st8" width="0.6" height="0.6"/>
	<rect x="382.4" y="123" class="st8" width="0.6" height="0.6"/>
	<rect x="384.3" y="123" class="st8" width="0.6" height="0.6"/>
	<rect x="388" y="123" class="st8" width="0.6" height="0.6"/>
	<rect x="379.3" y="124.2" class="st8" width="0.6" height="0.6"/>
	<rect x="378.8" y="171.4" class="st8" width="0.6" height="0.6"/>
	<rect x="381.9" y="173.2" class="st8" width="0.6" height="0.6"/>
	<rect x="385" y="179.2" class="st8" width="0.6" height="0.6"/>
	<rect x="432.1" y="210.5" class="st8" width="0.6" height="0.6"/>
	<rect x="433.3" y="206.1" class="st8" width="0.6" height="0.6"/>
	<rect x="434" y="203" class="st8" width="0.6" height="0.6"/>
	<rect x="437.6" y="191" class="st8" width="1.2" height="1.2"/>
	<polygon class="st8" points="519.8,249 534.1,234.7 537.3,237.8 537.3,245.3 532.9,249.7 532.9,260.3 524.8,268.4 519.8,268.4 	"/>
	<rect x="541.1" y="166.9" class="st8" width="1.2" height="0.6"/>
	<rect x="512.3" y="221" class="st8" width="0.6" height="0.6"/>
	<rect x="512.9" y="216.6" class="st8" width="0.6" height="0.6"/>
	<polygon class="st9" points="396.9,123.8 392.4,123.8 382.4,133.8 382.4,141.9 389.9,141.9 389.9,135.7 393,135.7 393,128.8 
		400.5,128.8 400.5,123.8 	"/>
	<path class="st10" d="M454.9,180L454.9,180l-2.6-2.6v-3h2v-6.2l-4.4-4.4 M439.3,189.4v-5.6l7-7l1.3,1.4l2-2l0-3.4l4.6-4.6
		 M482.4,278.7l-4.4,4.4l3.1,3.1l4.4-4.4L482.4,278.7z M503,156.9l1.9,1.9h2.5l8.7,8.7 M391.8,166.3h-3.1h-7.5 M394.9,178.1
		l-4.4,4.4 M411.2,175.6v10.6 M411.2,175.6l-3.1-3.1h-5 M475.5,140.6h20.6h7.5 M392.4,123.8h8.1v5H393v6.9h-3.1v6.2h-7.5
		 M417.4,103.8v6.9l-7.5,7.5H403l-2.5,2.5v3.1l8.7,8.7l18.7,18.7l16.9-16.9l-3.8-3.8v-15l-4.4-4.4v-3.8l1.9-1.9v-5 M490.5,270.6
		l-1.2,1.2l-1.2,1.2v2.5l2.5,2.5V275 M494.3,239.4l-5,5 M490.5,262.5v8.1v4.4h2.5 M486.8,244.4h-2.5l-7.5,7.5l10.6,10.6h3.1l4.4-4.4
		v-13.7h-5.6H486.8 M463.6,268.1l3.8,3.7v3.7l3.1-3.1h6.9l10-10 M476.8,251.9l-1.2-1.2 M456.8,279.4h6.9v-11.2v-6.9h3.8v-9.4h4.4
		l1.2,1.3l2.5-2.5l-1.3-1.2H473 M450.5,213.1l-1.9-1.9l-1.9,1.9 M444.9,195v3.7h-4.4 M445.5,211.9v-5h6.9v-8.7h-3.1V195 M444.9,195
		v3.7h-4.4 M446.8,251.2l2.5-2.5h14.4l1.9,1.9h5l1.2-1.2h1.2l-3.7-3.8v-9.4h4.4v-4.4 M496.8,227.5h2.5v5.6v4.4l3.1,3.1v6.2l-2.5,2.5
		l-1.9-1.9v-4.4l-3.7-3.8v-11.9H496.8 M488.6,211.9v10l5.6,5.6 M499.3,233.1h3.1l3.1,3.1l6.9-6.9 M461.8,189.4v11.2l-5.6,5.6v5.6
		h-4.4l-1.2,1.3l-2.5,2.5 M448,217.5h10.6v6.2h5.6v-3.1h5.6v11.2h3.7h5.6l6.2,6.2h2.5v-2.5l-3.1-3.1v-6.9l3.7-3.8 M490.5,207.5v2.5
		l-1.9,1.9l-2.5-2.5v-1.9 M486.1,205v2.5h4.4V205 M499.3,205h-8.7h-4.4v-1.9l4.4-4.4v-7.5 M497.4,188.1l1.9,1.9v15h1.9l4.4,4.4v2.5
		l5,5 M503.6,188.1h3.2l3.1,3.1l3.1-3.1h1.2 M474.3,150v7.5l-3.7,3.7v8.1l3.1,3.1 M481.1,186.3h1.2l2.5,2.5h3.1l2.5,2.5l0.6,0.6h6.2
		v-3.8h6.2l-8.7-8.7l3.1-3.1v-5l5-5v-9.4v-2.5h5.7 M516.1,205.6l-1.9-1.9v-15.6h7.5l10-10l-9.4,0.3l-3.1-3.5v-3.8 M468,173.8
		l-2.5,2.5h-3.1v3.8h-7.5l-1.9,1.9v8.1l3.7,3.8v-3.1h3.7l1.2-1.3l2.5-2.5l1.9,1.9h5l2.5-2.5h7.5v-2.5l-7.5-7.5v-3.7h-4.4L468,173.8
		 M440.5,195h4.4h4.4h7.5v-1.2 M519.3,167.5h-3.1h-1.2v3.7h4.4 M454.9,136.9v6.9l2.5,2.5l-2.5,2.5v6.9l-5,5v3.1h-20l-1.2,1.2
		 M423,170.6v-6.9l-5.6-5.6 M425.5,183.8V175l3.1-3.1V165l-3.1,3.1l-2.5,2.5h-1.2 M421.8,183.8v-13.1h-1.9h-1.2 M418.7,185v-14.4
		h-3.7h-3.8v5v10.6 M409.3,132.5h-4.4v26.2h-15l1.9,1.9v5.6h3.7l5.6,5.6l0.6,0.6h1.3l14.4-14.4H428v-6.9 M399.9,190.6v-5l-3.1-3.1
		l1.2-1.2l3.1-3.1v-6.2 M388.7,166.3v3.7H383 M389.9,158.8l-2.5-2.5h-5 M380.5,161.9h6.9v1.9h-6.2 M475.5,115v25.6v5h-1.3v4.4
		L458,133.8l-3.1,3.1l-3.7,3.7l-6.2-6.2 M441.1,115.7l4.4-4.4 M475.5,140.6V115 M398,181.3l-3.1-3.1l-3.7-3.7l-4.4,4.4"/>
	<path class="st11" d="M497.4,188.1l1.8-1.8l1.8,1.8 M502.3,138.3l-3.5,3.5h-1.4l-1.2-1.2"/>
	<path class="st10" d="M512.9,216.6h0.6v0.6h-0.6V216.6z M512.3,221h0.6v0.6h-0.6V221z M542.4,166.9h-1.2v0.6h1.2V166.9z M519.8,249
		l14.4-14.4l3.1,3.1v7.5l-4.4,4.4v10.6l-8.1,8.1h-5V249z M437.6,191h1.2v1.2h-1.2V191z M434,203h0.6v0.6H434V203z M433.3,206.1h0.6
		v0.6h-0.6V206.1z M432.1,210.5h0.6v0.6h-0.6V210.5z M385,179.2h0.6v0.6H385V179.2z M381.9,173.2h0.6v0.6h-0.6V173.2z M378.8,171.4
		h0.6v0.6h-0.6V171.4z M379.3,124.2h0.6v0.6h-0.6V124.2z M388,123h0.6v0.6H388V123z M384.3,123h0.6v0.6h-0.6V123z M382.4,123h0.6
		v0.6h-0.6V123z M379.9,121.9h0.6v0.6h-0.6V121.9z M382.9,108.8h0.6v0.6h-0.6V108.8z M503.6,140.6v-1.2l-3.1-3.1l-1.2-1.2v-5.6
		l-8.1-8.1l1.9-1.9l3.2,3.2l1.9-1.9l-6.9-6.9h-5.1l-1.2,1.2h-11.2l-4.4-4.4h-5.6v7.5h-1.2l-2.5-2.5h-2.5l-4.4-4.4h-7.5l-2.5-1.9
		l1.2-1.2v-7.5h-5.6h-16.9l-3.1,3.1h-1.2h-6.9l-1.2-1.3L398,113.8v4.4l-5.6,5.6l-10,10v8.1v14.4l-3.7,3.7l1.9,1.9l0.6,0.6v1.2v2.5
		v1.9l1.9,1.9l3.7,3.7v5l3.7,3.8l8.7,8.7l0.6-0.6l5-5h5.6l0.6,0.6l3.1,3.1l4.4-4.4l1.2-1.2h1.9h3.8h1.9l5.6,5.6h5.6h1.9v5.6v3.7v1.2
		l-1.2,1.2v4.4l6.2,6.2l1.2,1.3l1.2,1.2v1.2v1.9v11.2l3.1,3.1v3.8l-4.4,4.4v11.2v1.2l3.1,3.1v4.4l3.1,3.1v12.5l3.8,3.7v5.6l3.7,3.8
		v7.5H478l15-15V275v-1.2l6.2-6.2V255l5.6-5.6h4.4l3.7-3.8V230l-0.6-0.6l-1.9-1.9v-10.6v-5l3.7-3.7h1.9v-2.5v-1.2l18.1-18.1v-8.7
		l3.1-3.1V170h-13.1l-3.1,3.1l-1.9-1.9L518,170h3.7l-2.5-2.5l-10.6-10.6v-2.5v-1.2l-5-5V140.6"/>
	<path class="st12" d="M510.7,158.9l-2-2v-2.5 M402.5,109.3l-4.1,4.1 M450.7,260.8l2.3,2.3v2 M532.9,249.7v3.6 M513,243.6v-3.7
		 M531.6,188.9l2.6-2.6V185"/>
</g>
<g>
	<defs>
		<rect id="SVGID_5_" x="351.9" y="99.3" width="195.1" height="198.4"/>
	</defs>
	<clipPath id="SVGID_6_">
		<use xlink:href="#SVGID_5_"  style="overflow:visible;"/>
	</clipPath>
	<path class="st13" d="M485.1,173.5h0.6v0.6 M483,174.2v-0.6h0.6 M473.6,174.9h2.5v-1.6h2.3v1.6h4.6v1.1h2.1l0.6-1.1h1.4v-0.8
		l0.8-0.6l2.1,1.6h1.1l2.6-3.2v-2l-0.6-0.7h1.3v-0.7h1.4v3.7l1.1,1.6v1.7h1"/>
</g>
</svg>
